<?xml version="1.0" encoding="utf-8"?>
<!-- Generator: Adobe Illustrator 16.0.4, SVG Export Plug-In . SVG Version: 6.00 Build 0)  -->
<!DOCTYPE svg PUBLIC "-//W3C//DTD SVG 1.1//EN" "http://www.w3.org/Graphics/SVG/1.1/DTD/svg11.dtd">
<svg version="1.1" id="Layer_1" xmlns="http://www.w3.org/2000/svg" xmlns:xlink="http://www.w3.org/1999/xlink" x="0px" y="0px"
	 width="815px" height="809px" viewBox="0 0 815 809" enable-background="new 0 0 815 809" xml:space="preserve">
<g>
	<path fill="none" stroke="#232020" d="M315.915,441.215c-3.863-19.908,42.17-26.73,53.016-15.234"/>
	<line fill="none" stroke="#232020" x1="461.342" y1="155.35" x2="469.98" y2="159.398"/>
	<line fill="none" stroke="#232020" x1="475.114" y1="134.522" x2="465.661" y2="157.374"/>
	<path fill="none" stroke="#232020" d="M298.503,526.768c3.862-19.914-42.172-26.734-53.018-15.234"/>
	<path fill="#232020" d="M244.417,514.479c1.826-1.045,3.131-1.615,4.716-2.344l-4.475-4.219c-0.197,0.609-1.126,2.955-2.067,4.84
		c-1.007,2.018-2.021,3.742-2.777,4.777C240.798,516.721,242.461,515.604,244.417,514.479"/>
	<path fill="none" stroke="#232020" d="M300.672,546.746c3.862,19.908-42.174,26.729-53.02,15.232"/>
	<line fill="none" stroke="#CB343C" stroke-dasharray="4,1" x1="283.683" y1="202.206" x2="322.815" y2="228.458"/>
	<line fill="none" stroke="#CB343C" stroke-dasharray="4,1" x1="322.815" y1="228.458" x2="361.201" y2="201.292"/>
	<line fill="none" stroke="#CB343C" stroke-dasharray="4,1" x1="129.374" y1="200.065" x2="156.921" y2="222.859"/>
	<line fill="none" stroke="#CB343C" stroke-dasharray="4,1" x1="156.921" y1="222.859" x2="184.948" y2="200.065"/>
	<path fill="none" stroke="#232020" stroke-width="2" d="M140.788,157.246c-2.385,0-4.796,0.451-7.161,0.819
		c-1.554,0.244-2.311,2.149-2.537,4.022c-0.423,3.525,3.192,6.353,5.733,7.045c2.472,0.674,4.989,0.895,7.449,1.757
		c1.54,0.536,2.111,0.828,2.515,2.616c0.401,1.765,0.211,3.015,0.216,4.77"/>
	<path fill="none" stroke="#232020" stroke-width="2" d="M172.789,156.866c2.386,0,4.797,0.451,7.161,0.819
		c1.555,0.244,2.313,2.146,2.538,4.018c0.425,3.528-3.189,6.354-5.731,7.045c-2.475,0.671-4.99,0.896-7.451,1.756
		c-1.54,0.539-2.11,0.828-2.516,2.618c-0.399,1.764-0.211,3.012-0.214,4.768"/>
	<line fill="none" x1="136.634" y1="86.302" x2="353.952" y2="86.302"/>
	<line fill="none" stroke="#010101" stroke-width="2" x1="136.634" y1="86.302" x2="353.952" y2="86.302"/>
	<rect x="160.456" y="80.845" fill="#525253" width="33.172" height="10.91"/>
	<rect x="160.456" y="80.845" fill="none" stroke="#010101" width="33.172" height="10.91"/>
	<rect x="301.006" y="80.845" fill="#525253" width="33.174" height="10.91"/>
	<rect x="301.006" y="80.845" fill="none" stroke="#010101" width="33.174" height="10.91"/>
	<text transform="matrix(1 0 0 1 193.0742 49.0298)" fill="#010101" font-family="'MyriadPro-Regular'" font-size="24.3763">pre-mRNA</text>
	<line fill="none" x1="78.993" y1="196.956" x2="90.901" y2="196.956"/>
	<line fill="none" stroke="#010101" stroke-width="2" x1="78.993" y1="196.956" x2="90.901" y2="196.956"/>
	<rect x="90.901" y="191.5" fill="#525253" width="33.175" height="10.91"/>
	<rect x="90.901" y="191.5" fill="none" stroke="#010101" width="33.175" height="10.91"/>
	<rect x="179.651" y="191.5" fill="#525253" width="33.173" height="10.91"/>
	<rect x="179.651" y="191.5" fill="none" stroke="#010101" width="33.173" height="10.91"/>
	<line fill="none" x1="212.824" y1="196.956" x2="223.664" y2="196.956"/>
	<line fill="none" stroke="#010101" stroke-width="2" x1="212.824" y1="196.956" x2="223.664" y2="196.956"/>
	<line fill="none" stroke="#232020" stroke-width="2" x1="124.073" y1="196.956" x2="132.502" y2="196.956"/>
	<line fill="none" stroke="#232020" stroke-width="2" x1="171.221" y1="196.956" x2="179.651" y2="196.956"/>
	<path fill="none" stroke="#232020" stroke-width="2" d="M132.502,196.953c4.215,0.069,10.231-3.042,8.667-8.803"/>
	<path fill="none" stroke="#232020" stroke-width="2" d="M171.221,196.953c-4.213,0.069-10.232-3.042-8.666-8.803"/>
	<path fill="#0760A9" d="M152.333,185.407c0,3.174-4.671,5.749-10.432,5.749c-5.762,0-10.431-2.575-10.431-5.749
		s4.669-5.751,10.431-5.751C147.662,179.656,152.333,182.233,152.333,185.407"/>
	<ellipse fill="none" stroke="#232020" stroke-width="0.5" cx="141.901" cy="185.407" rx="10.432" ry="5.749"/>
	<path fill="#0760A9" d="M173.522,185.407c0,3.174-4.669,5.749-10.432,5.749c-5.759,0-10.43-2.575-10.43-5.749
		s4.671-5.751,10.43-5.751C168.851,179.658,173.522,182.233,173.522,185.407"/>
	<ellipse fill="none" stroke="#232020" stroke-width="0.5" cx="163.09" cy="185.407" rx="10.432" ry="5.749"/>
	<rect x="224.153" y="82.611" fill="#D8DADA" width="33.176" height="10.91"/>
	<rect x="224.153" y="82.611" fill="none" stroke="#010101" width="33.176" height="10.91"/>
	<rect x="135.035" y="153.324" fill="#D8DADA" width="33.176" height="10.91"/>
	<rect x="135.035" y="153.324" fill="none" stroke="#010101" stroke-dasharray="1,1" width="33.176" height="10.91"/>
	<polygon fill="#9258A4" points="114.871,193.446 111.042,185.64 114.875,177.84 122.536,177.845 126.359,185.65 122.528,193.448 	
		"/>
	<polygon fill="none" stroke="#010101" stroke-width="0.5" points="114.871,193.446 111.042,185.64 114.875,177.84 122.536,177.845 
		126.359,185.65 122.528,193.448 	"/>
	<polygon fill="#9258A4" points="181.014,193.446 177.189,185.64 181.022,177.84 188.679,177.845 192.506,185.65 188.672,193.448 	
		"/>
	<polygon fill="none" stroke="#010101" stroke-width="0.5" points="181.014,193.446 177.189,185.64 181.022,177.84 188.679,177.845 
		192.506,185.65 188.672,193.448 	"/>
	<polygon fill="#9258A4" points="114.871,217.29 111.042,209.483 114.875,201.687 122.536,201.689 126.359,209.497 122.528,217.294 
			"/>
	<polygon fill="none" stroke="#010101" stroke-width="0.5" points="114.871,217.29 111.042,209.483 114.875,201.687 
		122.536,201.689 126.359,209.497 122.528,217.294 	"/>
	<polygon fill="#9258A4" points="181.014,217.29 177.189,209.483 181.022,201.687 188.679,201.689 192.506,209.497 188.672,217.294 
			"/>
	<polygon fill="none" stroke="#010101" stroke-width="0.5" points="181.014,217.29 177.189,209.483 181.022,201.687 
		188.679,201.689 192.506,209.497 188.672,217.294 	"/>
	<path fill="#1EBAED" d="M172.192,77.877c0,3.174-4.672,5.748-10.435,5.748c-5.758,0-10.43-2.574-10.43-5.748
		s4.669-5.751,10.43-5.751C167.52,72.126,172.192,74.701,172.192,77.877"/>
	<ellipse fill="none" stroke="#232020" stroke-width="0.5" cx="161.759" cy="77.877" rx="10.433" ry="5.748"/>
	<path fill="#0760A9" d="M190.917,97.177c0,3.173-4.669,5.75-10.434,5.75c-5.758,0-10.431-2.577-10.431-5.75
		c0-3.174,4.671-5.749,10.431-5.749C186.245,91.428,190.917,94.003,190.917,97.177"/>
	<ellipse fill="none" stroke="#232020" stroke-width="0.5" cx="180.483" cy="97.176" rx="10.434" ry="5.75"/>
	<path fill="#2289C6" d="M312.293,97.177c0,3.173-4.668,5.75-10.433,5.75c-5.758,0-10.429-2.577-10.429-5.75
		c0-3.174,4.671-5.749,10.429-5.749C307.622,91.428,312.293,94.003,312.293,97.177"/>
	<ellipse fill="none" stroke="#232020" stroke-width="0.5" cx="301.86" cy="97.176" rx="10.433" ry="5.75"/>
	<path fill="#0760A9" d="M288.238,82.613c0,3.174-4.67,5.75-10.431,5.75c-5.76,0-10.431-2.576-10.431-5.75s4.671-5.749,10.431-5.749
		C283.568,76.865,288.238,79.439,288.238,82.613"/>
	<ellipse fill="none" stroke="#232020" stroke-width="0.5" cx="277.807" cy="82.613" rx="10.431" ry="5.75"/>
	<path fill="#0760A9" d="M251.173,77.877c0,3.174-4.671,5.748-10.432,5.748c-5.761,0-10.429-2.574-10.429-5.748
		s4.668-5.751,10.429-5.751C246.501,72.126,251.173,74.701,251.173,77.877"/>
	<ellipse fill="none" stroke="#232020" stroke-width="0.5" cx="240.741" cy="77.877" rx="10.432" ry="5.748"/>
	<path fill="#1EBAED" d="M261.606,97.177c0,3.173-4.673,5.75-10.436,5.75c-5.759,0-10.43-2.577-10.43-5.75
		c0-3.174,4.67-5.749,10.43-5.749C256.933,91.428,261.606,94.003,261.606,97.177"/>
	<ellipse fill="none" stroke="#232020" stroke-width="0.5" cx="251.173" cy="97.176" rx="10.434" ry="5.75"/>
	<path fill="#0760A9" d="M328.882,77.877c0,3.174-4.672,5.748-10.432,5.748c-5.759,0-10.43-2.574-10.43-5.748
		s4.671-5.751,10.43-5.751C324.21,72.126,328.882,74.701,328.882,77.877"/>
	<ellipse fill="none" stroke="#232020" stroke-width="0.5" cx="318.45" cy="77.877" rx="10.432" ry="5.748"/>
	<path fill="#2289C6" d="M239.795,97.177c0,3.173-4.669,5.75-10.434,5.75c-5.758,0-10.43-2.577-10.43-5.75
		c0-3.174,4.671-5.749,10.43-5.749C235.122,91.428,239.795,94.003,239.795,97.177"/>
	<ellipse fill="none" stroke="#232020" stroke-width="0.5" cx="229.361" cy="97.176" rx="10.434" ry="5.75"/>
	<path fill="#1EBAED" d="M215.932,82.613c0,3.174-4.671,5.75-10.432,5.75c-5.761,0-10.43-2.576-10.43-5.75s4.668-5.749,10.43-5.749
		C211.261,76.865,215.932,79.439,215.932,82.613"/>
	<ellipse fill="none" stroke="#232020" stroke-width="0.5" cx="205.502" cy="82.613" rx="10.432" ry="5.75"/>
	<path fill="#0760A9" d="M609.439,60.722c0,3.173-4.669,5.748-10.426,5.748c-5.763,0-10.431-2.574-10.431-5.748
		c0-3.175,4.668-5.751,10.431-5.751C604.771,54.971,609.439,57.547,609.439,60.722"/>
	<path fill="none" stroke="#232020" stroke-width="0.5" d="M599.014,54.974c5.756,0,10.426,2.574,10.426,5.749
		s-4.67,5.748-10.426,5.748c-5.763,0-10.431-2.573-10.431-5.748S593.251,54.974,599.014,54.974z"/>
	<path fill="#1EBAED" d="M620.353,50.443c0,3.175-4.675,5.749-10.434,5.749c-5.764,0-10.431-2.573-10.431-5.749
		c0-3.174,4.667-5.749,10.431-5.749C615.678,44.695,620.353,47.27,620.353,50.443"/>
	<path fill="none" stroke="#232020" stroke-width="0.5" d="M609.919,44.695c5.763,0,10.429,2.575,10.429,5.749
		c0,3.175-4.666,5.749-10.429,5.749c-5.764,0-10.433-2.573-10.433-5.749C599.486,47.27,604.155,44.695,609.919,44.695z"/>
	<path fill="#2289C6" d="M630.781,60.722c0,3.173-4.668,5.748-10.435,5.748c-5.755,0-10.428-2.574-10.428-5.748
		c0-3.175,4.673-5.751,10.428-5.751C626.113,54.974,630.781,57.547,630.781,60.722"/>
	<ellipse fill="none" stroke="#232020" stroke-width="0.5" cx="620.348" cy="60.722" rx="10.434" ry="5.748"/>
	<polygon fill="#9258A4" points="596.334,87.048 592.501,79.243 596.334,71.442 604.001,71.447 607.824,79.253 603.991,87.053 	"/>
	<polygon fill="none" stroke="#010101" stroke-width="0.5" points="596.334,87.048 592.501,79.243 596.334,71.442 604.001,71.447 
		607.824,79.253 603.991,87.053 	"/>
	<line fill="none" x1="233.042" y1="197.877" x2="400.314" y2="197.877"/>
	<line fill="none" stroke="#010101" stroke-width="2" x1="233.042" y1="197.877" x2="400.314" y2="197.877"/>
	<rect x="355.902" y="192.423" fill="#525253" width="33.169" height="10.911"/>
	<rect x="355.902" y="192.423" fill="none" stroke="#010101" width="33.169" height="10.911"/>
	<rect x="300.555" y="192.423" fill="#D8DADA" width="33.174" height="10.911"/>
	<rect x="300.555" y="192.423" fill="none" stroke="#010101" stroke-dasharray="1,1" width="33.174" height="10.911"/>
	<rect x="245.208" y="192.423" fill="#525253" width="33.174" height="10.911"/>
	<rect x="245.208" y="192.423" fill="none" stroke="#010101" width="33.174" height="10.911"/>
	<polygon fill="#9258A4" points="268.249,193.757 264.423,185.951 268.256,178.151 275.917,178.156 279.741,185.961 
		275.909,193.762 	"/>
	<polygon fill="none" stroke="#010101" stroke-width="0.5" points="268.249,193.757 264.423,185.951 268.256,178.151 
		275.917,178.156 279.741,185.961 275.909,193.762 	"/>
	<polygon fill="#9258A4" points="359.556,193.757 355.73,185.951 359.563,178.153 367.219,178.158 371.046,185.964 367.214,193.762 
			"/>
	<polygon fill="none" stroke="#010101" stroke-width="0.5" points="359.556,193.757 355.73,185.951 359.563,178.153 
		367.219,178.158 371.046,185.964 367.214,193.762 	"/>
	<polygon fill="#9258A4" points="268.249,217.601 264.423,209.794 268.256,201.997 275.917,202 279.741,209.808 275.909,217.606 	
		"/>
	<polygon fill="none" stroke="#010101" stroke-width="0.5" points="268.249,217.601 264.423,209.794 268.256,201.997 275.917,202 
		279.741,209.808 275.909,217.606 	"/>
	<polygon fill="#9258A4" points="359.556,217.601 355.73,209.797 359.563,201.997 367.219,202.002 371.046,209.808 367.214,217.608 
			"/>
	<polygon fill="none" stroke="#010101" stroke-width="0.5" points="359.556,217.601 355.73,209.797 359.563,201.997 
		367.219,202.002 371.046,209.808 367.214,217.608 	"/>
	<path fill="#1EBAED" d="M327.949,189.076c0,3.173-4.671,5.75-10.432,5.75c-5.761,0-10.43-2.578-10.43-5.75
		c0-3.175,4.669-5.75,10.43-5.75C323.278,183.327,327.949,185.901,327.949,189.076"/>
	<ellipse fill="none" stroke="#232020" stroke-width="0.5" cx="317.517" cy="189.076" rx="10.432" ry="5.751"/>
	<path fill="#2289C6" d="M352.604,201.997c0,3.174-4.671,5.751-10.433,5.751c-5.76,0-10.432-2.577-10.432-5.751
		c0-3.173,4.672-5.748,10.432-5.748C347.933,196.249,352.604,198.824,352.604,201.997"/>
	<ellipse fill="none" stroke="#232020" stroke-width="0.5" cx="342.171" cy="201.997" rx="10.433" ry="5.751"/>
	<path fill="#0760A9" d="M302.757,202.116c0,3.174-4.669,5.751-10.434,5.751c-5.758,0-10.431-2.577-10.431-5.751
		c0-3.174,4.67-5.748,10.431-5.748C298.088,196.369,302.757,198.94,302.757,202.116"/>
	<ellipse fill="none" stroke="#232020" stroke-width="0.5" cx="292.323" cy="202.116" rx="10.434" ry="5.751"/>
	<path fill="none" stroke="#232020" d="M343.478,196.968c0.905-4.448,3.38-11.509-1.832-13.315c-2.542-0.878-6.989,2.833-8.528,4.56
		"/>
	<path fill="none" stroke="#232020" d="M290.894,196.968c-0.906-4.448-3.379-11.509,1.831-13.315
		c2.542-0.878,6.989,2.833,8.529,4.56"/>
	<line fill="none" stroke="#232020" x1="337.077" y1="191.414" x2="329.155" y2="184.499"/>
	<line fill="none" stroke="#232020" x1="297.292" y1="191.414" x2="305.213" y2="184.496"/>
	<path fill="none" stroke="#232020" d="M316.664,182.892c3.292-17.648,21.754-10.113,16.454,4.267"/>
	<text transform="matrix(1 0 0 1 40.2485 127.5156)" fill="#010101" font-family="'MyriadPro-Regular'" font-size="24.3763">Alternative </text>
	<text transform="matrix(1 0 0 1 51.4614 148.8174)" fill="#010101" font-family="'MyriadPro-Regular'" font-size="24.3763">splicing</text>
	<line fill="none" stroke="#30292B" stroke-width="1.5" x1="221.229" y1="111.614" x2="200.371" y2="146.959"/>
	<path fill="#30292B" d="M201.318,145.352l7.707-0.102l0.018,0.269l-9.134,7.082c-2.612,2.806-5.224,5.609-7.833,8.415
		c1.191-3.642,2.385-7.283,3.578-10.925l1.786-11.416l0.212-0.138L201.318,145.352z"/>
	<line fill="none" stroke="#30292B" stroke-width="1.5" x1="273.303" y1="111.614" x2="294.165" y2="146.959"/>
	<path fill="#30292B" d="M293.215,145.352l3.638-6.795l0.242,0.118l1.785,11.416c1.19,3.642,2.385,7.283,3.578,10.925
		c-2.613-2.803-5.224-5.607-7.834-8.412l-9.131-7.083l-0.018-0.25L293.215,145.352z"/>
	<text transform="matrix(1 0 0 1 51.4448 459.0078)" fill="#010101" font-family="'MyriadPro-Regular'" font-size="24.3763">mRNA stability</text>
	<text transform="matrix(1 0 0 1 69.6558 544.7383)" fill="#010101" font-family="'MyriadPro-Regular'" font-size="24.3763">Translation</text>
	<text transform="matrix(1 0 0 1 544.5059 281.4761)" fill="#010101" font-family="'MyriadPro-Regular'" font-size="24.3763">Localization</text>
	<text transform="matrix(1 0 0 1 433.7627 93.8027)" fill="#010101" font-family="'MyriadPro-Regular'" font-size="24.3763">miRNA </text>
	<text transform="matrix(1 0 0 1 416.1387 123.0508)" fill="#010101" font-family="'MyriadPro-Regular'" font-size="24.3763">processing</text>
	<path fill="none" stroke="#010101" stroke-width="2" d="M518.633,23.099c39.399,35.826,62.569,79.682,62.569,127.052
		c0,120.938-151.084,218.979-337.458,218.979c-58.244,0-113.04-9.574-160.854-26.428"/>
	<rect x="165.08" y="288.735" fill="#525253" width="117.004" height="8.937"/>
	<rect x="165.08" y="288.735" fill="none" stroke="#010101" width="117.004" height="8.937"/>
	<text transform="matrix(1 0 0 1 204.5933 264.0244)" fill="#010101" font-family="'MyriadPro-Regular'" font-size="24.3763">mRNA</text>
	<text transform="matrix(1 0 0 1 283.7646 298.0405)" fill="#010101" font-family="'MyriadPro-Regular'" font-size="14.6258">AAAAA</text>
	<path fill="#0760A9" d="M270.167,286.095c0,3.174-4.67,5.75-10.431,5.75c-5.762,0-10.43-2.576-10.43-5.75
		c0-3.172,4.668-5.748,10.43-5.748C265.496,280.348,270.167,282.923,270.167,286.095"/>
	<ellipse fill="none" stroke="#232020" stroke-width="0.5" cx="259.735" cy="286.096" rx="10.431" ry="5.749"/>
	<path fill="#1EBAED" d="M243.53,300.661c0,3.174-4.669,5.751-10.433,5.751c-5.759,0-10.433-2.578-10.433-5.751
		c0-3.171,4.67-5.748,10.433-5.748C238.861,294.914,243.53,297.488,243.53,300.661"/>
	<ellipse fill="none" stroke="#232020" stroke-width="0.5" cx="233.098" cy="300.662" rx="10.433" ry="5.751"/>
	<path fill="#2289C6" d="M221.72,300.661c0,3.174-4.671,5.751-10.432,5.751c-5.759,0-10.431-2.578-10.431-5.751
		c0-3.171,4.672-5.748,10.431-5.748C217.049,294.914,221.72,297.488,221.72,300.661"/>
	<ellipse fill="none" stroke="#232020" stroke-width="0.5" cx="211.289" cy="300.662" rx="10.432" ry="5.751"/>
	<path fill="#1EBAED" d="M197.859,286.095c0,3.174-4.672,5.75-10.433,5.75c-5.76,0-10.431-2.576-10.431-5.75
		c0-3.172,4.671-5.748,10.431-5.748C193.187,280.348,197.859,282.923,197.859,286.095"/>
	<ellipse fill="none" stroke="#232020" stroke-width="0.5" cx="187.426" cy="286.096" rx="10.433" ry="5.749"/>
	<text transform="matrix(1 0 0 1 426.8057 29.3125)" fill="#010101" font-family="'MyriadPro-Regular'" font-size="17.0634">nucleus</text>
	<text transform="matrix(1 0 0 1 534.3887 31.7734)" fill="#010101" font-family="'MyriadPro-Regular'" font-size="17.0634">cytoplasm</text>
	<line fill="none" stroke="#2289C6" stroke-width="1.5" x1="370.566" y1="306.246" x2="468.224" y2="332.657"/>
	<path fill="#2289C6" d="M466.426,332.172l-2.146-7.405l0.26-0.086l9.257,6.921c3.395,1.774,6.788,3.546,10.188,5.317
		c-3.824-0.183-7.65-0.364-11.479-0.545l-11.482,1.313l-0.187-0.17L466.426,332.172z"/>
	<line fill="none" stroke="#010101" stroke-width="1.5" x1="269.721" y1="332.203" x2="269.721" y2="390.706"/>
	<path fill="#010101" d="M269.721,388.843l6.587-4.006l0.148,0.225l-4.268,10.738c-0.821,3.742-1.646,7.485-2.47,11.23
		c-0.823-3.745-1.646-7.485-2.466-11.23l-4.267-10.738l0.11-0.225L269.721,388.843z"/>
	<rect x="219.345" y="532.932" fill="#525253" width="117.003" height="8.936"/>
	<rect x="219.345" y="532.932" fill="none" stroke="#010101" width="117.003" height="8.936"/>
	<text transform="matrix(1 0 0 1 338.0312 541.874)" fill="#010101" font-family="'MyriadPro-Regular'" font-size="14.6258">AAAAA</text>
	<path fill="#0760A9" d="M311.85,532.932c0,3.168-4.669,5.748-10.429,5.748s-10.432-2.574-10.432-5.748
		c0-3.176,4.671-5.752,10.432-5.752S311.85,529.76,311.85,532.932"/>
	<ellipse fill="none" stroke="#232020" stroke-width="0.5" cx="301.418" cy="532.93" rx="10.432" ry="5.75"/>
	<path fill="#1EBAED" d="M318.991,544.857c0,3.172-4.67,5.75-10.432,5.75c-5.76,0-10.433-2.576-10.433-5.75s4.672-5.75,10.433-5.75
		C314.321,539.107,318.991,541.684,318.991,544.857"/>
	<ellipse fill="none" stroke="#232020" stroke-width="0.5" cx="308.56" cy="544.857" rx="10.432" ry="5.75"/>
	<path fill="#2289C6" d="M297.179,544.857c0,3.172-4.668,5.75-10.428,5.75c-5.761,0-10.433-2.576-10.433-5.75
		s4.671-5.75,10.433-5.75C292.511,539.107,297.179,541.684,297.179,544.857"/>
	<ellipse fill="none" stroke="#232020" stroke-width="0.5" cx="286.749" cy="544.857" rx="10.431" ry="5.75"/>
	<rect x="219.345" y="447.205" fill="#525253" width="117.003" height="8.938"/>
	<rect x="219.345" y="447.205" fill="none" stroke="#010101" width="117.003" height="8.938"/>
	<text transform="matrix(1 0 0 1 338.0312 456.5098)" fill="#010101" font-family="'MyriadPro-Regular'" font-size="14.6258">AAAAA</text>
	<path fill="#1EBAED" d="M297.794,459.131c0,3.174-4.669,5.748-10.43,5.748c-5.76,0-10.433-2.574-10.433-5.748
		c0-3.172,4.673-5.75,10.433-5.75C293.125,453.381,297.794,455.959,297.794,459.131"/>
	<ellipse fill="none" stroke="#232020" stroke-width="0.5" cx="287.365" cy="459.133" rx="10.43" ry="5.746"/>
	<path fill="#1EBAED" d="M265.553,459.131c0,3.174-4.669,5.748-10.43,5.748c-5.762,0-10.433-2.574-10.433-5.748
		c0-3.172,4.671-5.75,10.433-5.75C260.884,453.381,265.553,455.959,265.553,459.131"/>
	<ellipse fill="none" stroke="#232020" stroke-width="0.5" cx="255.121" cy="459.133" rx="10.433" ry="5.746"/>
	<path fill="#1EBAED" d="M248.092,447.205c0,3.174-4.669,5.752-10.43,5.752c-5.762,0-10.433-2.578-10.433-5.752
		c0-3.172,4.67-5.746,10.433-5.746C243.423,441.459,248.092,444.033,248.092,447.205"/>
	<ellipse fill="none" stroke="#232020" stroke-width="0.5" cx="237.66" cy="447.206" rx="10.433" ry="5.751"/>
	<path fill="#F47C2B" d="M252.058,543.641c0-5.133-6.805-9.293-15.205-9.293c-8.393,0-15.2,4.16-15.2,9.293
		c0,5.131,6.807,9.293,15.2,9.293C245.25,552.934,252.058,548.771,252.058,543.641"/>
	<path fill="none" stroke="#232020" stroke-width="0.5" d="M236.856,534.348c8.396,0,15.202,4.156,15.202,9.293
		c0,5.131-6.806,9.289-15.202,9.289c-8.396,0-15.203-4.158-15.203-9.289C221.653,538.504,228.459,534.348,236.856,534.348z"/>
	<path fill="#F47C2B" d="M247.653,528.553c0-5.361-4.833-9.709-10.797-9.709c-5.965,0-10.8,4.352-10.8,9.709
		c0,5.361,4.834,9.713,10.8,9.713C242.82,538.266,247.653,533.914,247.653,528.553"/>
	<ellipse fill="none" stroke="#232020" stroke-width="0.5" cx="236.856" cy="528.553" rx="10.797" ry="9.709"/>
	<line fill="none" stroke="#232020" x1="243.694" y1="564.068" x2="251.613" y2="557.152"/>
	<path fill="#48B85D" d="M378.68,439.314c4.296,6.959,13.412,9.119,20.366,4.824c6.954-4.289,9.118-13.404,4.824-20.359
		c-4.29-6.957-13.406-9.115-20.36-4.826C376.552,423.242,374.389,432.361,378.68,439.314"/>
	<path fill="none" stroke="#30292B" d="M391.274,416.748c8.176,0,14.796,6.627,14.796,14.799s-6.62,14.799-14.796,14.799
		c-8.173,0-14.797-6.627-14.797-14.799S383.102,416.748,391.274,416.748z"/>
	<polygon fill="#FFFFFF" points="371.665,433.35 382.24,448.309 391.229,430.455 	"/>
	<polygon fill="none" stroke="#FFFFFF" points="371.665,433.35 382.24,448.309 391.229,430.455 	"/>
	<line fill="none" stroke="#30292B" x1="376.489" y1="431.848" x2="392.177" y2="429.559"/>
	<line fill="none" stroke="#30292B" x1="392.177" y1="429.559" x2="384.375" y2="444.625"/>
	<rect x="511.327" y="327.076" fill="#525253" width="117.001" height="8.936"/>
	<rect x="511.327" y="327.076" fill="none" stroke="#010101" width="117.001" height="8.936"/>
	<text transform="matrix(1 0 0 1 630.0098 336.3774)" fill="#010101" font-family="'MyriadPro-Regular'" font-size="14.6258">AAAAA</text>
	<path fill="#1EBAED" d="M589.774,339c0,3.174-4.67,5.75-10.432,5.75c-5.759,0-10.428-2.577-10.428-5.75
		c0-3.171,4.669-5.748,10.428-5.748C585.104,333.254,589.774,335.829,589.774,339"/>
	<ellipse fill="none" stroke="#232020" stroke-width="0.5" cx="579.343" cy="339" rx="10.43" ry="5.75"/>
	<path fill="#2289C6" d="M574.908,327.076c0,3.171-4.676,5.748-10.435,5.748c-5.761,0-10.429-2.577-10.429-5.748
		c0-3.175,4.668-5.751,10.429-5.751C570.232,321.325,574.908,323.898,574.908,327.076"/>
	<ellipse fill="none" stroke="#232020" stroke-width="0.5" cx="564.475" cy="327.076" rx="10.434" ry="5.748"/>
	<path fill="#1EBAED" d="M557.53,339c0,3.174-4.668,5.75-10.428,5.75c-5.762,0-10.431-2.577-10.431-5.75
		c0-3.171,4.669-5.748,10.431-5.748C552.862,333.251,557.53,335.829,557.53,339"/>
	<ellipse fill="none" stroke="#232020" stroke-width="0.5" cx="547.103" cy="339" rx="10.428" ry="5.75"/>
	<path fill="#1EBAED" d="M540.068,327.076c0,3.171-4.674,5.748-10.429,5.748c-5.759,0-10.432-2.577-10.432-5.748
		c0-3.175,4.673-5.748,10.432-5.748C535.395,321.328,540.068,323.901,540.068,327.076"/>
	<ellipse fill="none" stroke="#232020" stroke-width="0.5" cx="529.64" cy="327.076" rx="10.434" ry="5.748"/>
	<ellipse fill="none" stroke="#30292B" stroke-dasharray="4,2" cx="589.772" cy="332.442" rx="96.283" ry="36.687"/>
	<line fill="none" stroke="#30292B" stroke-width="1.5" x1="341.162" y1="112.021" x2="396.213" y2="137.594"/>
	<path fill="#30292B" d="M394.523,136.808l-0.855-7.662l0.268-0.042l7.943,8.395c3.045,2.326,6.093,4.647,9.142,6.971
		c-3.741-0.828-7.481-1.659-11.228-2.488l-11.537-0.659l-0.156-0.198L394.523,136.808z"/>
	<line fill="none" stroke="#30292B" x1="481.688" y1="151.87" x2="484.664" y2="169.164"/>
	<line fill="none" stroke="#30292B" x1="486.876" y1="182.016" x2="490.419" y2="202.574"/>
	<line fill="none" stroke="#30292B" x1="491.773" y1="150.13" x2="493.013" y2="157.324"/>
	<line fill="none" stroke="#30292B" x1="494.757" y1="167.425" x2="500.965" y2="203.478"/>
	<path fill="none" stroke="#30292B" d="M481.586,152.727c-5.592-6.163-3.179-16.408,6.631-15.511
		c6.636,0.608,7.869,9.248,3.293,12.813"/>
	<path fill="none" stroke="#30292B" d="M484.001,169.626c-6.253,1.931-3.247,11.902,2.236,12.973"/>
	<path fill="none" stroke="#30292B" d="M492.672,156.757c6.462,2.253,7.852,5.39,1.734,10.089"/>
	<line fill="none" stroke="#30292B" x1="489.543" y1="197.488" x2="499.635" y2="195.75"/>
	<line fill="none" stroke="#30292B" x1="487.983" y1="192.75" x2="498.556" y2="190.928"/>
	<line fill="none" stroke="#30292B" x1="487.94" y1="188.186" x2="498.03" y2="186.449"/>
	<line fill="none" stroke="#30292B" x1="486.876" y1="182.016" x2="496.728" y2="180.32"/>
	<line fill="none" stroke="#30292B" x1="484.664" y1="169.166" x2="494.757" y2="167.425"/>
	<line fill="none" stroke="#30292B" x1="492.672" y1="156.757" x2="482.82" y2="158.451"/>
	<line fill="none" stroke="#30292B" x1="481.586" y1="152.727" x2="491.914" y2="150.948"/>
	<path fill="#1EBAED" d="M489.062,139.373c0,3.173-4.67,5.75-10.428,5.75c-5.759,0-10.431-2.574-10.431-5.75
		c0-3.174,4.672-5.749,10.431-5.749C484.393,133.627,489.062,136.199,489.062,139.373"/>
	<ellipse fill="none" stroke="#232020" stroke-width="0.5" cx="478.633" cy="139.372" rx="10.43" ry="5.751"/>
	<path fill="none" stroke="#30292B" d="M490.243,201.602c-1.068,3.869-0.534,6.813-6.049,6.451"/>
	<path fill="none" stroke="#30292B" d="M500.628,202.199c1.879,3.119,1.658,4.52,5.381,5.795"/>
	<polygon fill="#FDEE1C" points="455.645,177.43 451.82,169.622 455.652,161.821 463.313,161.826 467.138,169.632 463.305,177.432 	
		"/>
	<polygon fill="none" stroke="#010101" stroke-width="0.5" points="455.645,177.43 451.82,169.622 455.652,161.821 463.313,161.826 
		467.138,169.632 463.305,177.432 	"/>
	<path fill="#48B85D" d="M623.038,195.13c0,6.539-5.301,11.839-11.835,11.839c-6.538,0-11.839-5.298-11.839-11.839
		c0-6.538,5.301-11.838,11.839-11.838C617.737,183.292,623.038,188.593,623.038,195.13"/>
	<circle fill="none" stroke="#30292B" cx="611.202" cy="195.13" r="11.838"/>
	<polygon fill="#FFFFFF" points="625.312,188.122 624.395,202.748 610.775,194.367 	"/>
	<polygon fill="none" stroke="#FFFFFF" points="625.312,188.122 624.395,202.748 610.775,194.367 	"/>
	<line fill="none" stroke="#30292B" x1="621.396" y1="189.123" x2="609.756" y2="194.155"/>
	<line fill="none" stroke="#30292B" x1="609.756" y1="194.157" x2="621.396" y2="201.14"/>
	<path fill="#F47C2B" d="M623.01,168.567c0-4.107-5.444-7.438-12.164-7.438c-6.719,0-12.164,3.33-12.164,7.438
		c0,4.106,5.445,7.436,12.164,7.436C617.565,176.003,623.01,172.673,623.01,168.567"/>
	<ellipse fill="none" stroke="#232020" stroke-width="0.5" cx="610.846" cy="168.567" rx="12.164" ry="7.437"/>
	<path fill="#F47C2B" d="M619.487,156.498c0-4.292-3.87-7.768-8.642-7.768c-4.771,0-8.638,3.477-8.638,7.768
		c0,4.291,3.867,7.768,8.638,7.768C615.617,164.266,619.487,160.789,619.487,156.498"/>
	<ellipse fill="none" stroke="#232020" stroke-width="0.5" cx="610.846" cy="156.498" rx="8.642" ry="7.768"/>
	<rect x="611.815" y="101.696" fill="#D8DADA" width="13.821" height="13.82"/>
	<rect x="611.815" y="101.696" fill="none" stroke="#010101" stroke-dasharray="1,1" width="13.821" height="13.82"/>
	<polygon fill="#EF3931" points="447.306,525.229 439.773,522.77 433.482,527.584 433.495,519.66 426.976,515.158 434.51,512.723 
		436.775,505.131 441.421,511.547 449.343,511.354 444.678,517.756 	"/>
	<polygon fill="none" stroke="#010101" points="447.306,525.229 439.773,522.77 433.482,527.584 433.495,519.66 426.976,515.158 
		434.51,512.723 436.775,505.131 441.421,511.547 449.343,511.354 444.678,517.756 	"/>
	<polygon fill="#EF3931" points="477.363,551.688 469.833,549.232 463.538,554.043 463.547,546.123 457.034,541.619 
		464.564,539.186 466.831,531.59 471.481,538.004 479.398,537.812 474.733,544.217 	"/>
	<polygon fill="none" stroke="#010101" points="477.363,551.688 469.833,549.232 463.538,554.043 463.547,546.123 457.034,541.619 
		464.564,539.186 466.831,531.59 471.481,538.004 479.398,537.812 474.733,544.217 	"/>
	<polygon fill="#EF3931" points="450.415,566.975 442.89,564.516 436.594,569.326 436.604,561.404 430.083,556.908 437.622,554.467 
		439.888,546.877 444.532,553.289 452.451,553.1 447.79,559.502 	"/>
	<polygon fill="none" stroke="#010101" points="450.415,566.975 442.89,564.516 436.594,569.326 436.604,561.404 430.083,556.908 
		437.622,554.467 439.888,546.877 444.532,553.289 452.451,553.1 447.79,559.502 	"/>
	<polygon fill="#EF3931" points="678.324,399.578 670.795,397.117 664.498,401.93 664.507,394.008 657.988,389.507 665.527,387.067 
		667.79,379.479 672.44,385.894 680.358,385.703 675.696,392.106 	"/>
	<polygon fill="none" stroke="#010101" points="678.324,399.578 670.795,397.117 664.498,401.93 664.507,394.008 657.988,389.507 
		665.527,387.067 667.79,379.479 672.44,385.894 680.358,385.703 675.696,392.106 	"/>
	<polygon fill="#EF3931" points="689.508,434.404 681.978,431.945 675.683,436.756 675.696,428.834 669.176,424.334 
		676.711,421.896 678.975,414.307 683.619,420.719 691.542,420.525 686.88,426.928 	"/>
	<polygon fill="none" stroke="#010101" points="689.508,434.404 681.978,431.945 675.683,436.756 675.696,428.834 669.176,424.334 
		676.711,421.896 678.975,414.307 683.619,420.719 691.542,420.525 686.88,426.928 	"/>
	<polygon fill="#EF3931" points="655.947,430.639 648.416,428.184 642.122,432.994 642.131,425.072 635.611,420.572 643.15,418.137 
		645.411,410.541 650.061,416.957 657.979,416.764 653.314,423.168 	"/>
	<polygon fill="none" stroke="#010101" points="655.947,430.639 648.416,428.184 642.122,432.994 642.131,425.072 635.611,420.572 
		643.15,418.137 645.411,410.541 650.061,416.957 657.979,416.764 653.314,423.168 	"/>
	<line fill="none" stroke="#2289C6" stroke-width="1.5" x1="617.65" y1="351.339" x2="639.007" y2="386.918"/>
	<path fill="#2289C6" d="M638.051,385.322l3.58-6.822l0.246,0.112l1.866,11.406c1.221,3.631,2.444,7.263,3.664,10.897
		c-2.634-2.783-5.267-5.569-7.896-8.354l-9.186-7.015l-0.02-0.251L638.051,385.322z"/>
	<line fill="none" stroke="#010101" stroke-width="1.5" x1="388.869" y1="537.396" x2="418.638" y2="537.396"/>
	<path fill="#010101" d="M416.775,537.396l-4.006-6.586l0.225-0.152l10.741,4.271c3.739,0.818,7.486,1.645,11.227,2.467
		c-3.74,0.824-7.487,1.648-11.227,2.471l-10.741,4.27l-0.225-0.111L416.775,537.396z"/>
	<line fill="none" stroke="#010101" stroke-width="1.5" x1="405.614" y1="450.943" x2="435.38" y2="450.943"/>
	<path fill="#010101" d="M433.519,450.943l-4.008-6.584l0.224-0.152l10.743,4.268c3.739,0.824,7.482,1.648,11.225,2.471
		c-3.742,0.826-7.485,1.648-11.225,2.475l-10.743,4.264l-0.224-0.111L433.519,450.943z"/>
	<text transform="matrix(1 0 0 1 462.7998 450.7734)" fill="#010101" font-family="'MyriadPro-Regular'" font-size="17.0634">mRNA </text>
	<text transform="matrix(1 0 0 1 443.2256 471.2529)" fill="#010101" font-family="'MyriadPro-Regular'" font-size="17.0634">degradation</text>
	<text transform="matrix(1 0 0 1 552.0723 395.9331)" fill="#010101" font-family="'MyriadPro-Regular'" font-size="17.0634">localized </text>
	<text transform="matrix(1 0 0 1 547.0566 416.4121)" fill="#010101" font-family="'MyriadPro-Regular'" font-size="17.0634">translation</text>
	<polygon fill="#FDEE1C" points="614.884,87.048 611.061,79.243 614.895,71.442 622.553,71.447 626.381,79.253 622.548,87.053 	"/>
	<polygon fill="none" stroke="#010101" stroke-width="0.5" points="614.884,87.048 611.061,79.243 614.895,71.442 622.553,71.447 
		626.381,79.253 622.548,87.053 	"/>
	<polygon fill="#EF3931" points="618.21,140.367 611.957,138.434 606.699,142.325 606.748,135.975 601.347,132.4 607.631,130.404 
		609.553,124.31 613.386,129.427 619.971,129.231 616.059,134.388 	"/>
	<polygon fill="none" stroke="#010101" points="618.21,140.367 611.957,138.434 606.699,142.325 606.748,135.975 601.347,132.4 
		607.631,130.404 609.553,124.31 613.386,129.427 619.971,129.231 616.059,134.388 	"/>
	<text transform="matrix(1 0 0 1 633.9424 65.6875)" fill="#010101" font-family="'MyriadPro-Regular'" font-size="17.0634">RNA binding </text>
	<text transform="matrix(1 0 0 1 633.9424 86.1646)" fill="#010101" font-family="'MyriadPro-Regular'" font-size="17.0634">proteins</text>
	<text transform="matrix(1 0 0 1 633.0576 115.8506)" fill="#010101" font-family="'MyriadPro-Regular'" font-size="17.0634">exons</text>
	<text transform="matrix(1 0 0 1 624.2256 141.3652)" fill="#010101" font-family="'MyriadPro-Regular'" font-size="17.0634">translated products</text>
	<text transform="matrix(1 0 0 1 633.0576 168.6455)" fill="#010101" font-family="'MyriadPro-Regular'" font-size="17.0634">Ribosome</text>
	<text transform="matrix(1 0 0 1 633.0576 195.0439)" fill="#010101" font-family="'MyriadPro-Regular'" font-size="17.0634">Ribonuclease</text>
	<rect x="600.975" y="99.877" fill="#525253" width="13.822" height="13.821"/>
	<rect x="600.975" y="99.877" fill="none" stroke="#010101" width="13.822" height="13.821"/>
	<path fill="#2289C6" d="M330.13,449.285c0,3.172-4.67,5.752-10.434,5.752c-5.761,0-10.43-2.58-10.43-5.752
		c0-3.174,4.669-5.746,10.43-5.746S330.13,446.111,330.13,449.285"/>
	<path fill="none" stroke="#232020" stroke-width="0.5" d="M319.698,443.533c5.761,0,10.432,2.572,10.432,5.752
		c0,3.178-4.67,5.752-10.432,5.752c-5.762,0-10.433-2.574-10.433-5.752C309.266,446.105,313.937,443.533,319.698,443.533z"/>
	<text transform="matrix(0.4787 0 0 1 414.7529 458.2793)" fill="#010101" font-family="'MyriadPro-Regular'" font-size="35.7377">X</text>
	<line fill="none" stroke="#232020" x1="372.895" y1="423.889" x2="364.968" y2="430.807"/>
</g>
<line fill="none" x1="227.333" y1="616.128" x2="508.675" y2="616.128"/>
<line fill="none" stroke="#010101" stroke-width="2" x1="227.333" y1="616.128" x2="508.675" y2="616.128"/>
<rect x="258.167" y="609.062" fill="#525253" width="42.949" height="14.125"/>
<rect x="258.167" y="609.062" fill="none" stroke="#010101" width="42.949" height="14.125"/>
<rect x="440.133" y="609.062" fill="#525253" width="42.946" height="14.125"/>
<rect x="440.133" y="609.062" fill="none" stroke="#010101" width="42.946" height="14.125"/>
<rect x="340.635" y="611.352" fill="#D8DADA" width="42.952" height="14.125"/>
<rect x="340.635" y="611.352" fill="none" stroke="#010101" width="42.952" height="14.125"/>
<path fill="#1EBAED" d="M273.362,605.22c0,4.107-6.045,7.441-13.505,7.441c-7.459,0-13.504-3.334-13.504-7.441
	c0-4.11,6.047-7.442,13.504-7.442C267.314,597.777,273.362,601.109,273.362,605.22"/>
<ellipse fill="none" stroke="#232020" stroke-width="0.5" cx="259.856" cy="605.219" rx="13.505" ry="7.442"/>
<path fill="#70BF44" d="M297.605,630.207c0,4.11-6.047,7.444-13.508,7.444c-7.457,0-13.502-3.334-13.502-7.444
	s6.045-7.441,13.502-7.441C291.558,622.766,297.605,626.097,297.605,630.207"/>
<ellipse fill="none" stroke="#232020" stroke-width="0.5" cx="284.1" cy="630.206" rx="13.506" ry="7.446"/>
<path fill="#2289C6" d="M454.745,630.207c0,4.11-6.046,7.444-13.507,7.444c-7.453,0-13.5-3.334-13.5-7.444s6.047-7.441,13.5-7.441
	C448.697,622.766,454.745,626.097,454.745,630.207"/>
<ellipse fill="none" stroke="#232020" stroke-width="0.5" cx="441.241" cy="630.206" rx="13.504" ry="7.446"/>
<path fill="#FDEE1C" d="M424.747,582.581c0,4.363-6.047,7.907-13.507,7.907c-7.458,0-13.504-3.544-13.504-7.907
	c0-4.366,6.046-7.909,13.504-7.909C418.7,574.672,424.747,578.215,424.747,582.581"/>
<ellipse fill="none" stroke="#232020" stroke-width="0.5" cx="409.665" cy="583.152" rx="13.506" ry="7.441"/>
<path fill="#0760A9" d="M375.616,605.22c0,4.107-6.047,7.441-13.505,7.441c-7.458,0-13.505-3.334-13.505-7.441
	c0-4.11,6.045-7.442,13.505-7.442C369.57,597.777,375.616,601.109,375.616,605.22"/>
<ellipse fill="none" stroke="#232020" stroke-width="0.5" cx="362.111" cy="605.219" rx="13.505" ry="7.442"/>
<path fill="#1EBAED" d="M389.122,630.207c0,4.11-6.046,7.444-13.506,7.444c-7.459,0-13.505-3.334-13.505-7.444
	s6.047-7.441,13.505-7.441C383.075,622.766,389.122,626.097,389.122,630.207"/>
<ellipse fill="none" stroke="#232020" stroke-width="0.5" cx="375.616" cy="630.206" rx="13.506" ry="7.446"/>
<path fill="#70BF44" d="M476.219,605.22c0,4.107-6.046,7.441-13.507,7.441c-7.458,0-13.504-3.334-13.504-7.441
	c0-4.11,6.046-7.442,13.504-7.442C470.173,597.777,476.219,601.109,476.219,605.22"/>
<ellipse fill="none" stroke="#232020" stroke-width="0.5" cx="462.716" cy="605.219" rx="13.505" ry="7.442"/>
<path fill="#2289C6" d="M360.885,630.207c0,4.11-6.047,7.444-13.508,7.444c-7.457,0-13.502-3.334-13.502-7.444
	s6.045-7.441,13.502-7.441C354.837,622.766,360.885,626.097,360.885,630.207"/>
<ellipse fill="none" stroke="#232020" stroke-width="0.5" cx="347.379" cy="630.206" rx="13.506" ry="7.446"/>
<path fill="#1EBAED" d="M329.994,611.352c0,4.108-6.045,7.439-13.505,7.439c-7.459,0-13.505-3.333-13.505-7.439
	c0-4.109,6.048-7.441,13.505-7.441C323.947,603.91,329.994,607.242,329.994,611.352"/>
<ellipse fill="none" stroke="#232020" stroke-width="0.5" cx="316.489" cy="611.351" rx="13.505" ry="7.44"/>
<text transform="matrix(1.1729 0 0 1 401.4844 623.2646)" fill="#EF3931" font-family="'MyriadPro-Regular'" font-size="21.0209">X</text>
<line fill="none" stroke="#232020" x1="408.802" y1="611.363" x2="408.802" y2="595.358"/>
<line fill="none" stroke="#232020" x1="401.794" y1="595.358" x2="416.306" y2="595.358"/>
<line fill="none" x1="227.517" y1="704.323" x2="508.864" y2="704.323"/>
<line fill="none" stroke="#010101" stroke-width="2" x1="227.517" y1="704.323" x2="508.864" y2="704.323"/>
<rect x="258.354" y="697.257" fill="#525253" width="42.947" height="14.124"/>
<rect x="258.354" y="697.257" fill="none" stroke="#010101" width="42.947" height="14.124"/>
<rect x="440.32" y="697.257" fill="#525253" width="42.944" height="14.124"/>
<rect x="440.32" y="697.257" fill="none" stroke="#010101" width="42.944" height="14.124"/>
<rect x="340.822" y="699.546" fill="#D8DADA" width="42.951" height="14.122"/>
<rect x="340.822" y="699.546" fill="none" stroke="#010101" width="42.951" height="14.122"/>
<path fill="#1EBAED" d="M273.547,693.413c0,4.11-6.047,7.442-13.506,7.442c-7.458,0-13.503-3.332-13.503-7.442
	s6.045-7.441,13.503-7.441C267.5,685.971,273.547,689.303,273.547,693.413"/>
<ellipse fill="none" stroke="#232020" stroke-width="0.5" cx="260.042" cy="693.414" rx="13.504" ry="7.442"/>
<path fill="#70BF44" d="M296.739,738.392c0,4.11-6.047,7.444-13.507,7.444c-7.458,0-13.504-3.334-13.504-7.444
	c0-4.111,6.046-7.438,13.504-7.438C290.692,730.95,296.739,734.28,296.739,738.392"/>
<ellipse fill="none" stroke="#232020" stroke-width="0.5" cx="283.234" cy="738.391" rx="13.505" ry="7.445"/>
<path fill="#2289C6" d="M454.931,718.402c0,4.108-6.047,7.443-13.507,7.443c-7.454,0-13.503-3.335-13.503-7.443
	c0-4.109,6.045-7.439,13.503-7.439C448.884,710.96,454.931,714.293,454.931,718.402"/>
<ellipse fill="none" stroke="#232020" stroke-width="0.5" cx="441.428" cy="718.404" rx="13.503" ry="7.441"/>
<path fill="#FDEE1C" d="M424.934,696.021c0,4.368-6.046,7.908-13.505,7.908c-7.462,0-13.506-3.54-13.506-7.908
	c0-4.365,6.044-7.909,13.506-7.909C418.888,688.112,424.934,691.656,424.934,696.021"/>
<ellipse fill="none" stroke="#232020" stroke-width="0.5" cx="409.852" cy="696.596" rx="13.504" ry="7.442"/>
<path fill="#0760A9" d="M375.802,693.413c0,4.11-6.045,7.442-13.506,7.442c-7.459,0-13.504-3.332-13.504-7.442
	s6.045-7.441,13.504-7.441C369.757,685.972,375.802,689.303,375.802,693.413"/>
<ellipse fill="none" stroke="#232020" stroke-width="0.5" cx="362.296" cy="693.414" rx="13.506" ry="7.442"/>
<path fill="#1EBAED" d="M389.306,718.402c0,4.108-6.047,7.443-13.504,7.443c-7.458,0-13.506-3.335-13.506-7.443
	c0-4.109,6.045-7.439,13.506-7.439C383.261,710.963,389.306,714.293,389.306,718.402"/>
<ellipse fill="none" stroke="#232020" stroke-width="0.5" cx="375.802" cy="718.404" rx="13.504" ry="7.441"/>
<path fill="#70BF44" d="M475.354,677.633c0,4.111-6.046,7.443-13.506,7.443c-7.461,0-13.505-3.332-13.505-7.443
	c0-4.11,6.044-7.44,13.505-7.44C469.308,670.192,475.354,673.522,475.354,677.633"/>
<ellipse fill="none" stroke="#232020" stroke-width="0.5" cx="461.85" cy="677.634" rx="13.504" ry="7.442"/>
<path fill="#2289C6" d="M361.07,718.402c0,4.108-6.047,7.443-13.504,7.443c-7.458,0-13.506-3.335-13.506-7.443
	c0-4.109,6.045-7.439,13.506-7.439C355.024,710.963,361.07,714.293,361.07,718.402"/>
<ellipse fill="none" stroke="#232020" stroke-width="0.5" cx="347.565" cy="718.404" rx="13.504" ry="7.441"/>
<path fill="#1EBAED" d="M330.18,699.546c0,4.11-6.046,7.442-13.506,7.442c-7.459,0-13.505-3.332-13.505-7.442
	s6.048-7.442,13.505-7.442C324.132,692.104,330.18,695.436,330.18,699.546"/>
<ellipse fill="none" stroke="#232020" stroke-width="0.5" cx="316.674" cy="699.546" rx="13.506" ry="7.442"/>
<line fill="none" stroke="#010101" stroke-width="1.5" x1="507.125" y1="681.803" x2="545.664" y2="681.803"/>
<path fill="#010101" d="M543.248,681.803l-5.181-8.53l0.286-0.193l13.906,5.525c4.846,1.063,9.692,2.135,14.535,3.198
	c-4.843,1.066-9.689,2.13-14.535,3.197l-13.906,5.521l-0.286-0.142L543.248,681.803z"/>
<text transform="matrix(1 0 0 1 581.2744 667.8584)" fill="#010101" font-family="'MyriadPro-Regular'" font-size="22.0912">Aberrantly processed </text>
<text transform="matrix(1 0 0 1 581.2744 694.3682)" fill="#010101" font-family="'MyriadPro-Regular'" font-size="22.0912">RNA (e.g. splicing defect)</text>
<text transform="matrix(1.1729 0 0 1 276.3008 746.8701)" fill="#EF3931" font-family="'MyriadPro-Regular'" font-size="21.0209">X</text>
<text transform="matrix(1.1729 0 0 1 455.6611 684.2783)" fill="#EF3931" font-family="'MyriadPro-Regular'" font-size="21.0209">X</text>
<text transform="matrix(1 0 0 1 21.4927 601.5859)" fill="#010101" font-family="'MyriadPro-Regular'" font-size="22.0912">Mutation within a</text>
<text transform="matrix(1 0 0 1 21.4927 628.0957)" fill="#010101" font-family="'MyriadPro-Regular'" font-size="22.0912">functional RNA</text>
<text transform="matrix(1 0 0 1 21.4927 654.6035)" fill="#010101" font-family="'MyriadPro-Regular'" font-size="22.0912">element (RBP binding </text>
<text transform="matrix(1 0 0 1 21.4927 681.1133)" fill="#010101" font-family="'MyriadPro-Regular'" font-size="22.0912">site)</text>
<text transform="matrix(1 0 0 1 24.1226 719.4062)" fill="#010101" font-family="'MyriadPro-Regular'" font-size="22.0912">Aberrant RNA binding</text>
<text transform="matrix(1 0 0 1 24.1226 745.9141)" fill="#010101" font-family="'MyriadPro-Regular'" font-size="22.0912">protein function</text>
</svg>
