<?xml version="1.0" encoding="utf-8"?>
<!-- Generator: Adobe Illustrator 16.0.0, SVG Export Plug-In . SVG Version: 6.00 Build 0)  -->
<!DOCTYPE svg PUBLIC "-//W3C//DTD SVG 1.1//EN" "http://www.w3.org/Graphics/SVG/1.1/DTD/svg11.dtd">
<svg version="1.1" id="Layer_1" xmlns="http://www.w3.org/2000/svg" xmlns:xlink="http://www.w3.org/1999/xlink" x="0px" y="0px"
	 width="412.494px" height="332.582px" viewBox="0 0 412.494 332.582" enable-background="new 0 0 412.494 332.582"
	 xml:space="preserve">
<g>
	<path fill="none" stroke="#232020" d="M184.701,171.34c-1.553-8.004,16.954-10.747,21.314-6.125"/>
	<line fill="none" stroke="#232020" x1="243.167" y1="56.413" x2="246.64" y2="58.041"/>
	<line fill="none" stroke="#232020" x1="248.704" y1="48.04" x2="244.903" y2="57.227"/>
	<path fill="none" stroke="#232020" d="M177.701,205.734c1.553-8.005-16.954-10.748-21.315-6.125"/>
	<path fill="#232020" d="M155.957,200.794c0.734-0.421,1.259-0.649,1.896-0.943l-1.799-1.696c-0.079,0.245-0.453,1.189-0.831,1.946
		c-0.405,0.811-0.813,1.505-1.117,1.92C154.502,201.695,155.171,201.246,155.957,200.794"/>
	<path fill="none" stroke="#232020" d="M178.573,213.766c1.553,8.003-16.955,10.746-21.315,6.125"/>
	<line fill="none" stroke="#CB333B" stroke-dasharray="4,1" x1="171.743" y1="75.251" x2="187.475" y2="85.805"/>
	<line fill="none" stroke="#CB333B" stroke-dasharray="4,1" x1="187.475" y1="85.805" x2="202.907" y2="74.884"/>
	<line fill="none" stroke="#CB333B" stroke-dasharray="4,1" x1="109.706" y1="74.39" x2="120.781" y2="83.554"/>
	<line fill="none" stroke="#CB333B" stroke-dasharray="4,1" x1="120.781" y1="83.554" x2="132.049" y2="74.39"/>
	<path fill="none" stroke="#232020" stroke-width="2" d="M114.295,57.176c-0.959,0-1.929,0.181-2.879,0.329
		c-0.625,0.098-0.929,0.864-1.02,1.617c-0.17,1.417,1.283,2.554,2.305,2.832c0.994,0.271,2.006,0.36,2.995,0.706
		c0.619,0.216,0.849,0.333,1.011,1.052c0.161,0.71,0.085,1.212,0.087,1.918"/>
	<path fill="none" stroke="#232020" stroke-width="2" d="M127.16,57.023c0.959,0,1.929,0.181,2.879,0.329
		c0.625,0.098,0.93,0.863,1.02,1.616c0.171,1.418-1.282,2.554-2.304,2.832c-0.995,0.27-2.006,0.36-2.995,0.706
		c-0.62,0.216-0.849,0.333-1.012,1.052c-0.16,0.709-0.085,1.211-0.086,1.917"/>
	<line x1="112.625" y1="28.654" x2="199.993" y2="28.654"/>
	<line fill="none" stroke="#000000" stroke-width="2" x1="112.625" y1="28.654" x2="199.993" y2="28.654"/>
	<rect x="122.202" y="26.46" fill="#515152" width="13.336" height="4.386"/>
	<rect x="122.202" y="26.46" fill="none" stroke="#000000" width="13.336" height="4.386"/>
	<rect x="178.707" y="26.46" fill="#515152" width="13.337" height="4.386"/>
	<rect x="178.707" y="26.46" fill="none" stroke="#000000" width="13.337" height="4.386"/>
	<text transform="matrix(1 0 0 1 135.3159 13.6694)" font-family="'MyriadPro-Regular'" font-size="9.8">pre-mRNA</text>
	<line x1="89.451" y1="73.14" x2="94.239" y2="73.14"/>
	<line fill="none" stroke="#000000" stroke-width="2" x1="89.451" y1="73.14" x2="94.239" y2="73.14"/>
	<rect x="94.239" y="70.947" fill="#515152" width="13.337" height="4.386"/>
	<rect x="94.239" y="70.947" fill="none" stroke="#000000" width="13.337" height="4.386"/>
	<rect x="129.919" y="70.947" fill="#515152" width="13.337" height="4.386"/>
	<rect x="129.919" y="70.947" fill="none" stroke="#000000" width="13.337" height="4.386"/>
	<line x1="143.256" y1="73.14" x2="147.614" y2="73.14"/>
	<line fill="none" stroke="#000000" stroke-width="2" x1="143.256" y1="73.14" x2="147.614" y2="73.14"/>
	<line fill="none" stroke="#232020" stroke-width="2" x1="107.575" y1="73.14" x2="110.964" y2="73.14"/>
	<line fill="none" stroke="#232020" stroke-width="2" x1="126.53" y1="73.14" x2="129.919" y2="73.14"/>
	<path fill="none" stroke="#232020" stroke-width="2" d="M110.964,73.139c1.694,0.028,4.113-1.223,3.484-3.539"/>
	<path fill="none" stroke="#232020" stroke-width="2" d="M126.53,73.139c-1.694,0.028-4.114-1.223-3.484-3.539"/>
	<path fill="#065FA8" d="M118.936,68.497c0,1.276-1.878,2.311-4.194,2.311s-4.193-1.035-4.193-2.311s1.877-2.312,4.193-2.312
		S118.936,67.221,118.936,68.497"/>
	<ellipse fill="none" stroke="#232020" stroke-width="0.5" cx="114.742" cy="68.497" rx="4.194" ry="2.311"/>
	<path fill="#065FA8" d="M127.455,68.497c0,1.276-1.877,2.311-4.194,2.311c-2.315,0-4.193-1.035-4.193-2.311
		s1.878-2.312,4.193-2.312C125.577,66.186,127.455,67.221,127.455,68.497"/>
	<ellipse fill="none" stroke="#232020" stroke-width="0.5" cx="123.261" cy="68.497" rx="4.194" ry="2.311"/>
	<rect x="147.81" y="27.17" fill="#D8DADA" width="13.338" height="4.386"/>
	<rect x="147.81" y="27.17" fill="none" stroke="#000000" width="13.338" height="4.386"/>
	<rect x="111.982" y="55.599" fill="#D8DADA" width="13.338" height="4.386"/>
	<rect x="111.982" y="55.599" fill="none" stroke="#000000" stroke-dasharray="1,1" width="13.338" height="4.386"/>
	<polygon fill="#9257A7" points="103.875,71.729 102.336,68.591 103.877,65.455 106.957,65.457 108.494,68.595 106.954,71.73 	"/>
	<polygon fill="none" stroke="#000000" stroke-width="0.5" points="103.875,71.729 102.336,68.591 103.877,65.455 106.957,65.457 
		108.494,68.595 106.954,71.73 	"/>
	<polygon fill="#9257A7" points="130.467,71.729 128.929,68.591 130.47,65.455 133.549,65.457 135.087,68.595 133.546,71.73 	"/>
	<polygon fill="none" stroke="#000000" stroke-width="0.5" points="130.467,71.729 128.929,68.591 130.47,65.455 133.549,65.457 
		135.087,68.595 133.546,71.73 	"/>
	<polygon fill="#9257A7" points="103.875,81.315 102.336,78.177 103.877,75.042 106.957,75.043 108.494,78.182 106.954,81.317 	"/>
	<polygon fill="none" stroke="#000000" stroke-width="0.5" points="103.875,81.315 102.336,78.177 103.877,75.042 106.957,75.043 
		108.494,78.182 106.954,81.317 	"/>
	<polygon fill="#9257A7" points="130.467,81.315 128.929,78.177 130.47,75.042 133.549,75.043 135.087,78.182 133.546,81.317 	"/>
	<polygon fill="none" stroke="#000000" stroke-width="0.5" points="130.467,81.315 128.929,78.177 130.47,75.042 133.549,75.043 
		135.087,78.182 133.546,81.317 	"/>
	<path fill="#00BBF1" d="M126.92,25.267c0,1.276-1.878,2.311-4.195,2.311c-2.315,0-4.193-1.035-4.193-2.311
		c0-1.276,1.877-2.312,4.193-2.312C125.042,22.955,126.92,23.99,126.92,25.267"/>
	<ellipse fill="none" stroke="#232020" stroke-width="0.5" cx="122.726" cy="25.267" rx="4.194" ry="2.311"/>
	<path fill="#065FA8" d="M134.448,33.026c0,1.276-1.877,2.312-4.194,2.312c-2.315,0-4.194-1.036-4.194-2.312
		s1.878-2.311,4.194-2.311C132.57,30.715,134.448,31.75,134.448,33.026"/>
	<ellipse fill="none" stroke="#232020" stroke-width="0.5" cx="130.254" cy="33.026" rx="4.194" ry="2.312"/>
	<path fill="#1D88C6" d="M183.245,33.026c0,1.276-1.877,2.312-4.194,2.312c-2.315,0-4.193-1.036-4.193-2.312
		s1.878-2.311,4.193-2.311C181.367,30.715,183.245,31.75,183.245,33.026"/>
	<ellipse fill="none" stroke="#232020" stroke-width="0.5" cx="179.051" cy="33.026" rx="4.194" ry="2.312"/>
	<path fill="#065FA8" d="M173.574,27.171c0,1.276-1.877,2.312-4.193,2.312s-4.194-1.036-4.194-2.312
		c0-1.276,1.878-2.311,4.194-2.311S173.574,25.895,173.574,27.171"/>
	<ellipse fill="none" stroke="#232020" stroke-width="0.5" cx="169.381" cy="27.171" rx="4.193" ry="2.312"/>
	<path fill="#065FA8" d="M158.673,25.267c0,1.276-1.878,2.311-4.194,2.311s-4.193-1.035-4.193-2.311
		c0-1.276,1.877-2.312,4.193-2.312S158.673,23.99,158.673,25.267"/>
	<ellipse fill="none" stroke="#232020" stroke-width="0.5" cx="154.479" cy="25.267" rx="4.194" ry="2.311"/>
	<path fill="#00BBF1" d="M162.867,33.026c0,1.276-1.878,2.312-4.195,2.312c-2.315,0-4.193-1.036-4.193-2.312
		s1.878-2.311,4.193-2.311C160.989,30.715,162.867,31.75,162.867,33.026"/>
	<ellipse fill="none" stroke="#232020" stroke-width="0.5" cx="158.673" cy="33.026" rx="4.194" ry="2.312"/>
	<path fill="#065FA8" d="M189.914,25.267c0,1.276-1.878,2.311-4.194,2.311c-2.315,0-4.193-1.035-4.193-2.311
		c0-1.276,1.878-2.312,4.193-2.312C188.036,22.955,189.914,23.99,189.914,25.267"/>
	<ellipse fill="none" stroke="#232020" stroke-width="0.5" cx="185.72" cy="25.267" rx="4.194" ry="2.311"/>
	<path fill="#1D88C6" d="M154.098,33.026c0,1.276-1.877,2.312-4.194,2.312c-2.315,0-4.193-1.036-4.193-2.312
		s1.878-2.311,4.193-2.311C152.22,30.715,154.098,31.75,154.098,33.026"/>
	<ellipse fill="none" stroke="#232020" stroke-width="0.5" cx="149.904" cy="33.026" rx="4.194" ry="2.312"/>
	<path fill="#00BBF1" d="M144.505,27.171c0,1.276-1.878,2.312-4.194,2.312s-4.193-1.036-4.193-2.312
		c0-1.276,1.877-2.311,4.193-2.311S144.505,25.895,144.505,27.171"/>
	<ellipse fill="none" stroke="#232020" stroke-width="0.5" cx="140.312" cy="27.171" rx="4.194" ry="2.312"/>
	<path fill="#065FA8" d="M302.707,18.37c0,1.276-1.877,2.311-4.193,2.311s-4.193-1.035-4.193-2.311s1.877-2.312,4.193-2.312
		S302.707,17.094,302.707,18.37"/>
	<ellipse fill="none" stroke="#232020" stroke-width="0.5" cx="298.514" cy="18.37" rx="4.193" ry="2.311"/>
	<path fill="#00BBF1" d="M307.094,14.238c0,1.276-1.879,2.311-4.195,2.311s-4.193-1.035-4.193-2.311s1.877-2.311,4.193-2.311
		S307.094,12.962,307.094,14.238"/>
	<ellipse fill="none" stroke="#232020" stroke-width="0.5" cx="302.899" cy="14.238" rx="4.194" ry="2.311"/>
	<path fill="#1D88C6" d="M311.287,18.37c0,1.276-1.877,2.311-4.195,2.311c-2.314,0-4.193-1.035-4.193-2.311s1.879-2.312,4.193-2.312
		C309.41,16.059,311.287,17.094,311.287,18.37"/>
	<ellipse fill="none" stroke="#232020" stroke-width="0.5" cx="307.093" cy="18.37" rx="4.194" ry="2.311"/>
	<polygon fill="#9257A7" points="297.438,28.954 295.898,25.816 297.439,22.68 300.52,22.682 302.057,25.82 300.516,28.956 	"/>
	<polygon fill="none" stroke="#000000" stroke-width="0.5" points="297.438,28.954 295.898,25.816 297.439,22.68 300.52,22.682 
		302.057,25.82 300.516,28.956 	"/>
	<line x1="151.384" y1="73.511" x2="218.632" y2="73.511"/>
	<line fill="none" stroke="#000000" stroke-width="2" x1="151.384" y1="73.511" x2="218.632" y2="73.511"/>
	<rect x="200.777" y="71.318" fill="#515152" width="13.336" height="4.386"/>
	<rect x="200.777" y="71.318" fill="none" stroke="#000000" width="13.336" height="4.386"/>
	<rect x="178.526" y="71.318" fill="#D8DADA" width="13.337" height="4.386"/>
	<rect x="178.526" y="71.318" fill="none" stroke="#000000" stroke-dasharray="1,1" width="13.337" height="4.386"/>
	<rect x="156.275" y="71.318" fill="#515152" width="13.337" height="4.386"/>
	<rect x="156.275" y="71.318" fill="none" stroke="#000000" width="13.337" height="4.386"/>
	<polygon fill="#9257A7" points="165.538,71.854 164,68.716 165.541,65.58 168.621,65.582 170.158,68.72 168.617,71.856 	"/>
	<polygon fill="none" stroke="#000000" stroke-width="0.5" points="165.538,71.854 164,68.716 165.541,65.58 168.621,65.582 
		170.158,68.72 168.617,71.856 	"/>
	<polygon fill="#9257A7" points="202.246,71.854 200.708,68.716 202.249,65.581 205.327,65.583 206.865,68.721 205.325,71.856 	"/>
	<polygon fill="none" stroke="#000000" stroke-width="0.5" points="202.246,71.854 200.708,68.716 202.249,65.581 205.327,65.583 
		206.865,68.721 205.325,71.856 	"/>
	<polygon fill="#9257A7" points="165.538,81.44 164,78.302 165.541,75.167 168.621,75.168 170.158,78.307 168.617,81.442 	"/>
	<polygon fill="none" stroke="#000000" stroke-width="0.5" points="165.538,81.44 164,78.302 165.541,75.167 168.621,75.168 
		170.158,78.307 168.617,81.442 	"/>
	<polygon fill="#9257A7" points="202.246,81.44 200.708,78.303 202.249,75.167 205.327,75.169 206.865,78.307 205.325,81.443 	"/>
	<polygon fill="none" stroke="#000000" stroke-width="0.5" points="202.246,81.44 200.708,78.303 202.249,75.167 205.327,75.169 
		206.865,78.307 205.325,81.443 	"/>
	<path fill="#00BBF1" d="M189.539,69.972c0,1.276-1.878,2.312-4.194,2.312c-2.316,0-4.193-1.036-4.193-2.312
		s1.877-2.311,4.193-2.311C187.661,67.661,189.539,68.696,189.539,69.972"/>
	<ellipse fill="none" stroke="#232020" stroke-width="0.5" cx="185.345" cy="69.972" rx="4.194" ry="2.312"/>
	<path fill="#1D88C6" d="M199.451,75.167c0,1.276-1.878,2.312-4.194,2.312s-4.194-1.036-4.194-2.312s1.878-2.311,4.194-2.311
		S199.451,73.891,199.451,75.167"/>
	<ellipse fill="none" stroke="#232020" stroke-width="0.5" cx="195.257" cy="75.167" rx="4.194" ry="2.312"/>
	<path fill="#065FA8" d="M179.411,75.215c0,1.276-1.877,2.312-4.194,2.312c-2.315,0-4.194-1.036-4.194-2.312
		c0-1.276,1.878-2.311,4.194-2.311C177.534,72.904,179.411,73.938,179.411,75.215"/>
	<ellipse fill="none" stroke="#232020" stroke-width="0.5" cx="175.217" cy="75.215" rx="4.194" ry="2.312"/>
	<path fill="none" stroke="#232020" d="M195.782,73.145c0.364-1.788,1.359-4.627-0.736-5.353c-1.022-0.353-2.81,1.139-3.429,1.833"
		/>
	<path fill="none" stroke="#232020" d="M174.642,73.145c-0.364-1.788-1.359-4.627,0.736-5.353c1.022-0.353,2.81,1.139,3.429,1.833"
		/>
	<line fill="none" stroke="#232020" x1="193.209" y1="70.912" x2="190.024" y2="68.132"/>
	<line fill="none" stroke="#232020" x1="177.214" y1="70.912" x2="180.399" y2="68.131"/>
	<path fill="none" stroke="#232020" d="M185.002,67.486c1.324-7.095,8.746-4.066,6.615,1.715"/>
	<text transform="matrix(1 0 0 1 73.875 45.2222)" font-family="'MyriadPro-Regular'" font-size="9.8">Alternative </text>
	<text transform="matrix(1 0 0 1 78.3828 53.7876)" font-family="'MyriadPro-Regular'" font-size="9.8">splicing</text>
	<line fill="none" stroke="#2F292B" stroke-width="1.5" x1="146.635" y1="38.83" x2="138.249" y2="53.04"/>
	<path fill="#2F292B" d="M138.63,52.394l3.098-0.041l0.007,0.108l-3.672,2.847c-1.05,1.128-2.1,2.255-3.149,3.383
		c0.479-1.464,0.959-2.928,1.439-4.392l0.718-4.59l0.085-0.055L138.63,52.394z"/>
	<line fill="none" stroke="#2F292B" stroke-width="1.5" x1="167.57" y1="38.83" x2="175.957" y2="53.04"/>
	<path fill="#2F292B" d="M175.575,52.394l1.462-2.732l0.098,0.047l0.717,4.59c0.479,1.464,0.959,2.928,1.439,4.392
		c-1.051-1.127-2.1-2.254-3.15-3.382l-3.671-2.847l-0.007-0.101L175.575,52.394z"/>
	<text transform="matrix(1 0 0 1 78.3765 178.4927)" font-family="'MyriadPro-Regular'" font-size="9.8">mRNA stability</text>
	<text transform="matrix(1 0 0 1 85.6973 212.9595)" font-family="'MyriadPro-Regular'" font-size="9.8">Translation</text>
	<text transform="matrix(1 0 0 1 276.6016 107.1187)" font-family="'MyriadPro-Regular'" font-size="9.8">Localization</text>
	<text transform="matrix(1 0 0 1 232.0796 31.6685)" font-family="'MyriadPro-Regular'" font-size="9.8">miRNA </text>
	<text transform="matrix(1 0 0 1 224.9941 43.4282)" font-family="'MyriadPro-Regular'" font-size="9.8">processing</text>
	<path fill="none" stroke="#000000" stroke-width="2" d="M266.2,3.244c15.839,14.404,25.155,32.035,25.155,51.079
		c0,48.621-60.741,88.036-135.669,88.036c-23.416,0-45.445-3.849-64.668-10.625"/>
	<rect x="124.061" y="110.038" fill="#515152" width="47.039" height="3.593"/>
	<rect x="124.061" y="110.038" fill="none" stroke="#000000" width="47.039" height="3.593"/>
	<text transform="matrix(1 0 0 1 139.9463 100.103)" font-family="'MyriadPro-Regular'" font-size="9.8">mRNA</text>
	<text transform="matrix(1 0 0 1 171.7759 113.7798)" font-family="'MyriadPro-Regular'" font-size="5.88">AAAAA</text>
	<path fill="#065FA8" d="M166.309,108.977c0,1.276-1.878,2.311-4.194,2.311s-4.193-1.035-4.193-2.311
		c0-1.276,1.877-2.311,4.193-2.311S166.309,107.701,166.309,108.977"/>
	<ellipse fill="none" stroke="#232020" stroke-width="0.5" cx="162.115" cy="108.977" rx="4.194" ry="2.311"/>
	<path fill="#00BBF1" d="M155.6,114.833c0,1.276-1.877,2.312-4.194,2.312c-2.315,0-4.194-1.036-4.194-2.312
		c0-1.275,1.878-2.311,4.194-2.311C153.723,112.522,155.6,113.557,155.6,114.833"/>
	<ellipse fill="none" stroke="#232020" stroke-width="0.5" cx="151.406" cy="114.833" rx="4.194" ry="2.312"/>
	<path fill="#1D88C6" d="M146.832,114.833c0,1.276-1.878,2.312-4.194,2.312c-2.315,0-4.193-1.036-4.193-2.312
		c0-1.275,1.878-2.311,4.193-2.311C144.954,112.522,146.832,113.557,146.832,114.833"/>
	<ellipse fill="none" stroke="#232020" stroke-width="0.5" cx="142.638" cy="114.833" rx="4.194" ry="2.312"/>
	<path fill="#00BBF1" d="M137.239,108.977c0,1.276-1.878,2.311-4.194,2.311s-4.194-1.035-4.194-2.311
		c0-1.276,1.878-2.311,4.194-2.311S137.239,107.701,137.239,108.977"/>
	<ellipse fill="none" stroke="#232020" stroke-width="0.5" cx="133.045" cy="108.977" rx="4.194" ry="2.311"/>
	<text transform="matrix(1 0 0 1 229.2822 5.7417)" font-family="'MyriadPro-Regular'" font-size="6.86">nucleus</text>
	<text transform="matrix(1 0 0 1 272.5342 6.7319)" font-family="'MyriadPro-Regular'" font-size="6.86">cytoplasm</text>
	<line fill="none" stroke="#1D88C6" stroke-width="1.5" x1="206.673" y1="117.078" x2="245.935" y2="127.696"/>
	<path fill="#1D88C6" d="M245.211,127.501l-0.862-2.977l0.104-0.035l3.721,2.783c1.365,0.713,2.73,1.425,4.097,2.137
		c-1.538-0.073-3.077-0.146-4.616-0.219l-4.616,0.528l-0.075-0.068L245.211,127.501z"/>
	<line fill="none" stroke="#000000" stroke-width="1.5" x1="166.13" y1="127.513" x2="166.13" y2="151.033"/>
	<path d="M166.13,150.284l2.648-1.61l0.06,0.09l-1.716,4.317c-0.33,1.505-0.662,3.01-0.993,4.515
		c-0.331-1.505-0.662-3.009-0.992-4.515l-1.715-4.317l0.044-0.09L166.13,150.284z"/>
	<rect x="145.877" y="208.212" fill="#515152" width="47.039" height="3.593"/>
	<rect x="145.877" y="208.212" fill="none" stroke="#000000" width="47.039" height="3.593"/>
	<text transform="matrix(1 0 0 1 193.5923 211.8062)" font-family="'MyriadPro-Regular'" font-size="5.88">AAAAA</text>
	<path fill="#065FA8" d="M183.067,208.212c0,1.275-1.877,2.311-4.193,2.311s-4.194-1.035-4.194-2.311s1.878-2.311,4.194-2.311
		S183.067,206.937,183.067,208.212"/>
	<ellipse fill="none" stroke="#232020" stroke-width="0.5" cx="178.873" cy="208.212" rx="4.194" ry="2.311"/>
	<path fill="#00BBF1" d="M185.938,213.007c0,1.275-1.878,2.312-4.194,2.312s-4.194-1.036-4.194-2.312
		c0-1.276,1.878-2.311,4.194-2.311S185.938,211.731,185.938,213.007"/>
	<ellipse fill="none" stroke="#232020" stroke-width="0.5" cx="181.744" cy="213.007" rx="4.194" ry="2.312"/>
	<path fill="#1D88C6" d="M177.169,213.007c0,1.275-1.877,2.312-4.193,2.312s-4.194-1.036-4.194-2.312
		c0-1.276,1.878-2.311,4.194-2.311S177.169,211.731,177.169,213.007"/>
	<ellipse fill="none" stroke="#232020" stroke-width="0.5" cx="172.975" cy="213.007" rx="4.194" ry="2.312"/>
	<rect x="145.877" y="173.748" fill="#515152" width="47.039" height="3.593"/>
	<rect x="145.877" y="173.748" fill="none" stroke="#000000" width="47.039" height="3.593"/>
	<text transform="matrix(1 0 0 1 193.5923 177.4888)" font-family="'MyriadPro-Regular'" font-size="5.88">AAAAA</text>
	<path fill="#00BBF1" d="M177.416,178.543c0,1.275-1.877,2.311-4.193,2.311s-4.194-1.036-4.194-2.311
		c0-1.276,1.878-2.312,4.194-2.312S177.416,177.267,177.416,178.543"/>
	<ellipse fill="none" stroke="#232020" stroke-width="0.5" cx="173.223" cy="178.543" rx="4.193" ry="2.311"/>
	<path fill="#00BBF1" d="M164.454,178.543c0,1.276-1.877,2.311-4.193,2.311s-4.194-1.035-4.194-2.311s1.878-2.312,4.194-2.312
		S164.454,177.267,164.454,178.543"/>
	<ellipse fill="none" stroke="#232020" stroke-width="0.5" cx="160.26" cy="178.543" rx="4.194" ry="2.311"/>
	<path fill="#00BBF1" d="M157.434,173.748c0,1.276-1.877,2.312-4.193,2.312s-4.194-1.036-4.194-2.312
		c0-1.276,1.878-2.311,4.194-2.311S157.434,172.472,157.434,173.748"/>
	<ellipse fill="none" stroke="#232020" stroke-width="0.5" cx="153.24" cy="173.748" rx="4.194" ry="2.312"/>
	<path fill="#F57B2C" d="M159.029,212.517c0-2.063-2.736-3.736-6.113-3.736c-3.374,0-6.111,1.673-6.111,3.736
		s2.737,3.737,6.111,3.737C156.292,216.254,159.029,214.58,159.029,212.517"/>
	<ellipse fill="none" stroke="#232020" stroke-width="0.5" cx="152.917" cy="212.517" rx="6.112" ry="3.736"/>
	<path fill="#F57B2C" d="M157.258,206.452c0-2.155-1.943-3.903-4.341-3.903s-4.342,1.749-4.342,3.903
		c0,2.156,1.944,3.905,4.342,3.905S157.258,208.608,157.258,206.452"/>
	<ellipse fill="none" stroke="#232020" stroke-width="0.5" cx="152.917" cy="206.452" rx="4.341" ry="3.903"/>
	<line fill="none" stroke="#232020" x1="155.666" y1="220.731" x2="158.85" y2="217.95"/>
	<path fill="#40BC5C" d="M209.935,170.576c1.726,2.797,5.391,3.666,8.187,1.94c2.796-1.725,3.666-5.39,1.94-8.186
		c-1.725-2.797-5.39-3.665-8.186-1.94C209.079,164.114,208.209,167.78,209.935,170.576"/>
	<circle fill="none" stroke="#2F292B" cx="214.998" cy="167.453" r="5.949"/>
	<polygon fill="#FFFFFF" points="207.114,168.178 211.366,174.191 214.979,167.013 	"/>
	<polygon fill="none" stroke="#FFFFFF" points="207.114,168.178 211.366,174.191 214.979,167.013 	"/>
	<line fill="none" stroke="#2F292B" x1="209.054" y1="167.573" x2="215.36" y2="166.654"/>
	<line fill="none" stroke="#2F292B" x1="215.36" y1="166.654" x2="212.224" y2="172.711"/>
	<rect x="263.262" y="125.452" fill="#515152" width="47.039" height="3.593"/>
	<rect x="263.262" y="125.452" fill="none" stroke="#000000" width="47.039" height="3.593"/>
	<text transform="matrix(1 0 0 1 310.9766 129.1919)" font-family="'MyriadPro-Regular'" font-size="5.88">AAAAA</text>
	<path fill="#00BBF1" d="M294.801,130.246c0,1.276-1.877,2.312-4.195,2.312c-2.314,0-4.191-1.036-4.191-2.312
		c0-1.275,1.877-2.311,4.191-2.311C292.924,127.936,294.801,128.971,294.801,130.246"/>
	<ellipse fill="none" stroke="#232020" stroke-width="0.5" cx="290.607" cy="130.246" rx="4.193" ry="2.312"/>
	<path fill="#1D88C6" d="M288.824,125.452c0,1.275-1.879,2.311-4.195,2.311s-4.193-1.036-4.193-2.311
		c0-1.276,1.877-2.312,4.193-2.312S288.824,124.175,288.824,125.452"/>
	<ellipse fill="none" stroke="#232020" stroke-width="0.5" cx="284.63" cy="125.452" rx="4.194" ry="2.311"/>
	<path fill="#00BBF1" d="M281.838,130.246c0,1.276-1.877,2.312-4.193,2.312s-4.193-1.036-4.193-2.312
		c0-1.275,1.877-2.311,4.193-2.311S281.838,128.971,281.838,130.246"/>
	<ellipse fill="none" stroke="#232020" stroke-width="0.5" cx="277.645" cy="130.246" rx="4.193" ry="2.312"/>
	<path fill="#00BBF1" d="M274.818,125.452c0,1.275-1.879,2.311-4.193,2.311c-2.316,0-4.194-1.036-4.194-2.311
		c0-1.276,1.878-2.311,4.194-2.311C272.939,123.141,274.818,124.176,274.818,125.452"/>
	<ellipse fill="none" stroke="#232020" stroke-width="0.5" cx="270.625" cy="125.452" rx="4.194" ry="2.311"/>
	<ellipse fill="none" stroke="#2F292B" stroke-dasharray="4,2" cx="294.8" cy="127.61" rx="38.709" ry="14.749"/>
	<line fill="none" stroke="#2F292B" stroke-width="1.5" x1="194.851" y1="38.994" x2="216.984" y2="49.275"/>
	<path fill="#2F292B" d="M216.304,48.959l-0.344-3.08l0.107-0.017l3.194,3.375c1.225,0.935,2.45,1.868,3.675,2.802
		c-1.504-0.333-3.008-0.667-4.513-1l-4.639-0.265l-0.062-0.079L216.304,48.959z"/>
	<line fill="none" stroke="#2F292B" x1="251.346" y1="55.014" x2="252.543" y2="61.967"/>
	<line fill="none" stroke="#2F292B" x1="253.433" y1="67.134" x2="254.856" y2="75.399"/>
	<line fill="none" stroke="#2F292B" x1="255.401" y1="54.315" x2="255.9" y2="57.207"/>
	<line fill="none" stroke="#2F292B" x1="256.6" y1="61.268" x2="259.097" y2="75.762"/>
	<path fill="none" stroke="#2F292B" d="M251.306,55.359c-2.248-2.478-1.277-6.597,2.665-6.236c2.669,0.244,3.164,3.718,1.325,5.151"
		/>
	<path fill="none" stroke="#2F292B" d="M252.277,62.153c-2.515,0.776-1.306,4.785,0.899,5.215"/>
	<path fill="none" stroke="#2F292B" d="M255.762,56.979c2.598,0.906,3.157,2.167,0.698,4.056"/>
	<line fill="none" stroke="#2F292B" x1="254.505" y1="73.354" x2="258.562" y2="72.655"/>
	<line fill="none" stroke="#2F292B" x1="253.878" y1="71.449" x2="258.128" y2="70.717"/>
	<line fill="none" stroke="#2F292B" x1="253.861" y1="69.614" x2="257.917" y2="68.916"/>
	<line fill="none" stroke="#2F292B" x1="253.433" y1="67.134" x2="257.394" y2="66.452"/>
	<line fill="none" stroke="#2F292B" x1="252.543" y1="61.968" x2="256.6" y2="61.268"/>
	<line fill="none" stroke="#2F292B" x1="255.762" y1="56.979" x2="251.802" y2="57.66"/>
	<line fill="none" stroke="#2F292B" x1="251.306" y1="55.359" x2="255.458" y2="54.644"/>
	<path fill="#00BBF1" d="M254.312,49.99c0,1.276-1.878,2.312-4.193,2.312c-2.316,0-4.193-1.035-4.193-2.312
		c0-1.276,1.877-2.311,4.193-2.311C252.434,47.68,254.312,48.714,254.312,49.99"/>
	<ellipse fill="none" stroke="#232020" stroke-width="0.5" cx="250.118" cy="49.99" rx="4.193" ry="2.312"/>
	<path fill="none" stroke="#2F292B" d="M254.786,75.008c-0.429,1.555-0.215,2.739-2.432,2.593"/>
	<path fill="none" stroke="#2F292B" d="M258.961,75.248c0.756,1.254,0.667,1.817,2.164,2.33"/>
	<polygon fill="#FFF000" points="240.877,65.29 239.339,62.151 240.88,59.015 243.96,59.017 245.497,62.155 243.956,65.291 	"/>
	<polygon fill="none" stroke="#000000" stroke-width="0.5" points="240.877,65.29 239.339,62.151 240.88,59.015 243.96,59.017 
		245.497,62.155 243.956,65.291 	"/>
	<path fill="#40BC5C" d="M308.174,72.406c0,2.629-2.131,4.76-4.758,4.76c-2.629,0-4.76-2.13-4.76-4.76
		c0-2.628,2.131-4.759,4.76-4.759C306.043,67.647,308.174,69.778,308.174,72.406"/>
	<circle fill="none" stroke="#2F292B" cx="303.415" cy="72.406" r="4.759"/>
	<polygon fill="#FFFFFF" points="309.088,69.589 308.719,75.469 303.244,72.099 	"/>
	<polygon fill="none" stroke="#FFFFFF" points="309.088,69.589 308.719,75.469 303.244,72.099 	"/>
	<line fill="none" stroke="#2F292B" x1="307.514" y1="69.991" x2="302.834" y2="72.014"/>
	<line fill="none" stroke="#2F292B" x1="302.834" y1="72.015" x2="307.514" y2="74.822"/>
	<path fill="#F57B2C" d="M308.162,61.727c0-1.651-2.189-2.99-4.889-2.99c-2.701,0-4.891,1.339-4.891,2.99
		c0,1.651,2.189,2.99,4.891,2.99C305.973,64.717,308.162,63.378,308.162,61.727"/>
	<ellipse fill="none" stroke="#232020" stroke-width="0.5" cx="303.272" cy="61.727" rx="4.89" ry="2.99"/>
	<path fill="#F57B2C" d="M306.746,56.875c0-1.725-1.555-3.123-3.473-3.123s-3.473,1.398-3.473,3.123
		c0,1.725,1.555,3.123,3.473,3.123S306.746,58.6,306.746,56.875"/>
	<ellipse fill="none" stroke="#232020" stroke-width="0.5" cx="303.273" cy="56.875" rx="3.473" ry="3.123"/>
	<rect x="303.662" y="34.843" fill="#D8DADA" width="5.557" height="5.556"/>
	<rect x="303.662" y="34.843" fill="none" stroke="#000000" stroke-dasharray="1,1" width="5.557" height="5.556"/>
	<polygon fill="#F1352F" points="237.524,205.115 234.496,204.127 231.967,206.062 231.971,202.877 229.35,201.067 232.38,200.088 
		233.29,197.036 235.158,199.615 238.343,199.537 236.468,202.111 	"/>
	<polygon fill="none" stroke="#000000" points="237.524,205.115 234.496,204.127 231.967,206.062 231.971,202.877 229.35,201.067 
		232.38,200.088 233.29,197.036 235.158,199.615 238.343,199.537 236.468,202.111 	"/>
	<polygon fill="#F1352F" points="249.608,215.753 246.581,214.765 244.05,216.699 244.054,213.515 241.434,211.705 244.463,210.726 
		245.374,207.673 247.243,210.252 250.427,210.175 248.551,212.75 	"/>
	<polygon fill="none" stroke="#000000" points="249.608,215.753 246.581,214.765 244.05,216.699 244.054,213.515 241.434,211.705 
		244.463,210.726 245.374,207.673 247.243,210.252 250.427,210.175 248.551,212.75 	"/>
	<polygon fill="#F1352F" points="238.775,221.899 235.749,220.91 233.218,222.845 233.222,219.659 230.601,217.851 233.631,216.87 
		234.542,213.819 236.409,216.397 239.593,216.321 237.719,218.894 	"/>
	<polygon fill="none" stroke="#000000" points="238.775,221.899 235.749,220.91 233.218,222.845 233.222,219.659 230.601,217.851 
		233.631,216.87 234.542,213.819 236.409,216.397 239.593,216.321 237.719,218.894 	"/>
	<polygon fill="#F1352F" points="330.4,154.6 327.373,153.611 324.842,155.546 324.846,152.361 322.225,150.552 325.256,149.571 
		326.166,146.52 328.035,149.099 331.219,149.022 329.344,151.596 	"/>
	<polygon fill="none" stroke="#000000" points="330.4,154.6 327.373,153.611 324.842,155.546 324.846,152.361 322.225,150.552 
		325.256,149.571 326.166,146.52 328.035,149.099 331.219,149.022 329.344,151.596 	"/>
	<polygon fill="#F1352F" points="334.896,168.602 331.869,167.613 329.338,169.547 329.344,166.362 326.723,164.553 
		329.752,163.573 330.662,160.521 332.529,163.1 335.715,163.022 333.84,165.596 	"/>
	<polygon fill="none" stroke="#000000" points="334.896,168.602 331.869,167.613 329.338,169.547 329.344,166.362 326.723,164.553 
		329.752,163.573 330.662,160.521 332.529,163.1 335.715,163.022 333.84,165.596 	"/>
	<polygon fill="#F1352F" points="321.404,167.088 318.377,166.101 315.846,168.035 315.85,164.85 313.229,163.041 316.26,162.061 
		317.168,159.008 319.037,161.587 322.221,161.51 320.346,164.084 	"/>
	<polygon fill="none" stroke="#000000" points="321.404,167.088 318.377,166.101 315.846,168.035 315.85,164.85 313.229,163.041 
		316.26,162.061 317.168,159.008 319.037,161.587 322.221,161.51 320.346,164.084 	"/>
	<line fill="none" stroke="#1D88C6" stroke-width="1.5" x1="306.008" y1="135.207" x2="314.594" y2="149.511"/>
	<path fill="#1D88C6" d="M314.209,148.869l1.439-2.743l0.1,0.046l0.75,4.585c0.49,1.46,0.982,2.92,1.473,4.381
		c-1.059-1.119-2.117-2.239-3.174-3.359l-3.693-2.82l-0.008-0.101L314.209,148.869z"/>
	<line fill="none" stroke="#000000" stroke-width="1.5" x1="214.031" y1="210.008" x2="225.999" y2="210.008"/>
	<path d="M225.25,210.008l-1.61-2.648l0.09-0.061l4.318,1.716c1.504,0.33,3.01,0.662,4.514,0.993
		c-1.504,0.331-3.01,0.662-4.514,0.993l-4.318,1.716l-0.09-0.045L225.25,210.008z"/>
	<line fill="none" stroke="#000000" stroke-width="1.5" x1="220.763" y1="175.251" x2="232.73" y2="175.251"/>
	<path d="M231.981,175.251l-1.611-2.648l0.09-0.06l4.318,1.716c1.504,0.331,3.009,0.662,4.514,0.993
		c-1.505,0.332-3.01,0.662-4.514,0.994l-4.318,1.715l-0.09-0.045L231.981,175.251z"/>
	<text transform="matrix(1 0 0 1 243.7529 175.1821)" font-family="'MyriadPro-Regular'" font-size="6.86">mRNA </text>
	<text transform="matrix(1 0 0 1 235.8838 183.4146)" font-family="'MyriadPro-Regular'" font-size="6.86">degradation</text>
	<text transform="matrix(1 0 0 1 279.6436 153.1343)" font-family="'MyriadPro-Regular'" font-size="6.86">localized </text>
	<text transform="matrix(1 0 0 1 277.627 161.3667)" font-family="'MyriadPro-Regular'" font-size="6.86">translation</text>
	<polygon fill="#FFF000" points="304.896,28.954 303.359,25.816 304.9,22.68 307.979,22.682 309.518,25.82 307.977,28.956 	"/>
	<polygon fill="none" stroke="#000000" stroke-width="0.5" points="304.896,28.954 303.359,25.816 304.9,22.68 307.979,22.682 
		309.518,25.82 307.977,28.956 	"/>
	<polygon fill="#F1352F" points="306.232,50.39 303.719,49.613 301.604,51.177 301.625,48.624 299.453,47.187 301.979,46.385 
		302.752,43.934 304.293,45.991 306.941,45.913 305.367,47.986 	"/>
	<polygon fill="none" stroke="#000000" points="306.232,50.39 303.719,49.613 301.604,51.177 301.625,48.624 299.453,47.187 
		301.979,46.385 302.752,43.934 304.293,45.991 306.941,45.913 305.367,47.986 	"/>
	<text transform="matrix(1 0 0 1 312.5576 20.3662)"><tspan x="0" y="0" font-family="'MyriadPro-Regular'" font-size="6.86">RNA binding </tspan><tspan x="0" y="8.232" font-family="'MyriadPro-Regular'" font-size="6.86">proteins</tspan></text>
	<text transform="matrix(1 0 0 1 312.2021 40.5327)" font-family="'MyriadPro-Regular'" font-size="6.86">exons</text>
	<text transform="matrix(1 0 0 1 308.6514 50.7905)" font-family="'MyriadPro-Regular'" font-size="6.86">translated products</text>
	<text transform="matrix(1 0 0 1 312.2021 61.7583)" font-family="'MyriadPro-Regular'" font-size="6.86">Ribosome</text>
	<text transform="matrix(1 0 0 1 312.2021 72.3706)" font-family="'MyriadPro-Regular'" font-size="6.86">Ribonuclease</text>
	<rect x="299.303" y="34.112" fill="#515152" width="5.557" height="5.556"/>
	<rect x="299.303" y="34.112" fill="none" stroke="#000000" width="5.557" height="5.556"/>
	<path fill="#1D88C6" d="M190.416,174.584c0,1.276-1.878,2.312-4.195,2.312c-2.316,0-4.193-1.036-4.193-2.312
		s1.877-2.311,4.193-2.311C188.537,172.273,190.416,173.308,190.416,174.584"/>
	<ellipse fill="none" stroke="#232020" stroke-width="0.5" cx="186.222" cy="174.584" rx="4.194" ry="2.312"/>
	<text transform="matrix(0.4787 0 0 1 224.4365 178.1997)" font-family="'MyriadPro-Regular'" font-size="14.3676">X</text>
	<line fill="none" stroke="#232020" x1="207.608" y1="164.374" x2="204.422" y2="167.155"/>
</g>
<line x1="117.475" y1="263.634" x2="260.113" y2="263.634"/>
<line fill="none" stroke="#000000" stroke-width="2" x1="117.475" y1="263.634" x2="260.113" y2="263.634"/>
<rect x="133.107" y="260.052" fill="#515152" width="21.775" height="7.161"/>
<rect x="133.107" y="260.052" fill="none" stroke="#000000" width="21.775" height="7.161"/>
<rect x="225.362" y="260.052" fill="#515152" width="21.774" height="7.161"/>
<rect x="225.362" y="260.052" fill="none" stroke="#000000" width="21.774" height="7.161"/>
<rect x="174.918" y="261.212" fill="#D8DADA" width="21.776" height="7.161"/>
<rect x="174.918" y="261.212" fill="none" stroke="#000000" width="21.776" height="7.161"/>
<path fill="#00BBF1" d="M140.811,258.103c0,2.083-3.065,3.773-6.847,3.773s-6.847-1.691-6.847-3.773
	c0-2.083,3.066-3.773,6.847-3.773S140.811,256.02,140.811,258.103"/>
<ellipse fill="none" stroke="#232020" stroke-width="0.5" cx="133.964" cy="258.103" rx="6.847" ry="3.773"/>
<path fill="#1FFF32" d="M153.102,270.771c0,2.084-3.066,3.775-6.848,3.775c-3.781,0-6.846-1.69-6.846-3.775
	c0-2.083,3.065-3.772,6.846-3.772C150.036,266.999,153.102,268.688,153.102,270.771"/>
<ellipse fill="none" stroke="#232020" stroke-width="0.5" cx="146.255" cy="270.771" rx="6.847" ry="3.775"/>
<path fill="#1D88C6" d="M232.77,270.771c0,2.084-3.065,3.775-6.847,3.775c-3.779,0-6.845-1.69-6.845-3.775
	c0-2.083,3.065-3.772,6.845-3.772C229.704,266.999,232.77,268.688,232.77,270.771"/>
<ellipse fill="none" stroke="#232020" stroke-width="0.5" cx="225.924" cy="270.771" rx="6.846" ry="3.775"/>
<path fill="#FFF000" d="M217.562,246.626c0,2.212-3.066,4.009-6.848,4.009s-6.847-1.797-6.847-4.009c0-2.214,3.065-4.01,6.847-4.01
	S217.562,244.412,217.562,246.626"/>
<ellipse fill="none" stroke="#232020" stroke-width="0.5" cx="209.915" cy="246.915" rx="6.847" ry="3.773"/>
<path fill="#065FA8" d="M192.653,258.103c0,2.083-3.066,3.773-6.847,3.773s-6.847-1.691-6.847-3.773
	c0-2.083,3.065-3.773,6.847-3.773S192.653,256.02,192.653,258.103"/>
<ellipse fill="none" stroke="#232020" stroke-width="0.5" cx="185.806" cy="258.103" rx="6.847" ry="3.773"/>
<path fill="#00BBF1" d="M199.5,270.771c0,2.084-3.065,3.775-6.847,3.775s-6.847-1.69-6.847-3.775c0-2.083,3.066-3.772,6.847-3.772
	S199.5,268.688,199.5,270.771"/>
<ellipse fill="none" stroke="#232020" stroke-width="0.5" cx="192.653" cy="270.771" rx="6.847" ry="3.775"/>
<path fill="#1FFF32" d="M243.657,258.103c0,2.083-3.065,3.773-6.847,3.773s-6.847-1.691-6.847-3.773
	c0-2.083,3.065-3.773,6.847-3.773S243.657,256.02,243.657,258.103"/>
<ellipse fill="none" stroke="#232020" stroke-width="0.5" cx="236.811" cy="258.103" rx="6.847" ry="3.773"/>
<path fill="#1D88C6" d="M185.184,270.771c0,2.084-3.066,3.775-6.848,3.775c-3.781,0-6.846-1.69-6.846-3.775
	c0-2.083,3.065-3.772,6.846-3.772C182.118,266.999,185.184,268.688,185.184,270.771"/>
<ellipse fill="none" stroke="#232020" stroke-width="0.5" cx="178.337" cy="270.771" rx="6.847" ry="3.775"/>
<path fill="#00BBF1" d="M169.523,261.212c0,2.083-3.065,3.773-6.847,3.773s-6.847-1.691-6.847-3.773
	c0-2.083,3.066-3.773,6.847-3.773S169.523,259.129,169.523,261.212"/>
<ellipse fill="none" stroke="#232020" stroke-width="0.5" cx="162.676" cy="261.212" rx="6.847" ry="3.773"/>
<text transform="matrix(1.1729 0 0 1 205.7676 267.251)" fill="#F1352F" font-family="'MyriadPro-Regular'" font-size="10.6574">X</text>
<line fill="none" stroke="#232020" x1="209.477" y1="261.218" x2="209.477" y2="253.103"/>
<line fill="none" stroke="#232020" x1="205.925" y1="253.103" x2="213.282" y2="253.103"/>
<line x1="117.568" y1="308.348" x2="260.208" y2="308.348"/>
<line fill="none" stroke="#000000" stroke-width="2" x1="117.568" y1="308.348" x2="260.208" y2="308.348"/>
<rect x="133.202" y="304.766" fill="#515152" width="21.774" height="7.16"/>
<rect x="133.202" y="304.766" fill="none" stroke="#000000" width="21.774" height="7.16"/>
<rect x="225.457" y="304.766" fill="#515152" width="21.773" height="7.16"/>
<rect x="225.457" y="304.766" fill="none" stroke="#000000" width="21.773" height="7.16"/>
<rect x="175.012" y="305.926" fill="#D8DADA" width="21.776" height="7.16"/>
<rect x="175.012" y="305.926" fill="none" stroke="#000000" width="21.776" height="7.16"/>
<path fill="#00BBF1" d="M140.905,302.817c0,2.084-3.066,3.773-6.848,3.773c-3.781,0-6.846-1.689-6.846-3.773
	s3.065-3.773,6.846-3.773C137.839,299.043,140.905,300.733,140.905,302.817"/>
<ellipse fill="none" stroke="#232020" stroke-width="0.5" cx="134.058" cy="302.817" rx="6.847" ry="3.773"/>
<path fill="#1FFF32" d="M152.663,325.62c0,2.084-3.066,3.775-6.848,3.775c-3.781,0-6.846-1.691-6.846-3.775s3.065-3.771,6.846-3.771
	C149.597,321.848,152.663,323.536,152.663,325.62"/>
<ellipse fill="none" stroke="#232020" stroke-width="0.5" cx="145.816" cy="325.62" rx="6.847" ry="3.775"/>
<path fill="#1D88C6" d="M232.864,315.487c0,2.082-3.065,3.773-6.847,3.773c-3.78,0-6.846-1.691-6.846-3.773
	c0-2.084,3.065-3.773,6.846-3.773C229.799,311.713,232.864,313.403,232.864,315.487"/>
<ellipse fill="none" stroke="#232020" stroke-width="0.5" cx="226.018" cy="315.487" rx="6.846" ry="3.773"/>
<path fill="#FFF000" d="M217.656,304.139c0,2.215-3.065,4.01-6.847,4.01s-6.847-1.795-6.847-4.01c0-2.213,3.065-4.01,6.847-4.01
	S217.656,301.926,217.656,304.139"/>
<ellipse fill="none" stroke="#232020" stroke-width="0.5" cx="210.01" cy="304.43" rx="6.847" ry="3.773"/>
<path fill="#065FA8" d="M192.747,302.817c0,2.084-3.065,3.773-6.847,3.773s-6.847-1.689-6.847-3.773s3.065-3.773,6.847-3.773
	S192.747,300.733,192.747,302.817"/>
<ellipse fill="none" stroke="#232020" stroke-width="0.5" cx="185.9" cy="302.817" rx="6.847" ry="3.773"/>
<path fill="#00BBF1" d="M199.594,315.487c0,2.082-3.066,3.773-6.847,3.773s-6.847-1.691-6.847-3.773
	c0-2.084,3.065-3.773,6.847-3.773S199.594,313.403,199.594,315.487"/>
<ellipse fill="none" stroke="#232020" stroke-width="0.5" cx="192.747" cy="315.487" rx="6.847" ry="3.773"/>
<path fill="#1FFF32" d="M243.219,294.817c0,2.084-3.066,3.773-6.848,3.773s-6.847-1.689-6.847-3.773s3.065-3.773,6.847-3.773
	S243.219,292.733,243.219,294.817"/>
<ellipse fill="none" stroke="#232020" stroke-width="0.5" cx="236.372" cy="294.817" rx="6.847" ry="3.773"/>
<path fill="#1D88C6" d="M185.278,315.487c0,2.082-3.066,3.773-6.847,3.773s-6.847-1.691-6.847-3.773
	c0-2.084,3.065-3.773,6.847-3.773S185.278,313.403,185.278,315.487"/>
<ellipse fill="none" stroke="#232020" stroke-width="0.5" cx="178.431" cy="315.487" rx="6.847" ry="3.773"/>
<path fill="#00BBF1" d="M169.617,305.926c0,2.084-3.065,3.773-6.847,3.773s-6.847-1.689-6.847-3.773s3.066-3.773,6.847-3.773
	S169.617,303.842,169.617,305.926"/>
<ellipse fill="none" stroke="#232020" stroke-width="0.5" cx="162.77" cy="305.926" rx="6.847" ry="3.773"/>
<line fill="none" stroke="#000000" stroke-width="1.5" x1="260.46" y1="286.476" x2="279.999" y2="286.476"/>
<path d="M278.775,286.476l-2.628-4.323l0.146-0.099l7.05,2.802c2.457,0.539,4.914,1.081,7.369,1.62
	c-2.455,0.542-4.912,1.081-7.369,1.622l-7.05,2.799l-0.146-0.072L278.775,286.476z"/>
<text transform="matrix(1 0 0 1 296.5322 289.5464)"><tspan x="0" y="0" font-family="'MyriadPro-Regular'" font-size="11.2">Aberrantly processed </tspan><tspan x="0" y="13.44" font-family="'MyriadPro-Regular'" font-size="11.2">RNA (e.g. splicing defect)</tspan></text>
<text transform="matrix(1.1729 0 0 1 142.3008 329.9175)" fill="#F1352F" font-family="'MyriadPro-Regular'" font-size="10.6574">X</text>
<text transform="matrix(1.1729 0 0 1 233.2344 298.1841)" fill="#F1352F" font-family="'MyriadPro-Regular'" font-size="10.6574">X</text>
<text transform="matrix(1 0 0 1 0 250.3467)"><tspan x="0" y="0" font-family="'MyriadPro-Regular'" font-size="11.2">Mutation within a</tspan><tspan x="0" y="13.44" font-family="'MyriadPro-Regular'" font-size="11.2">functional RNA</tspan><tspan x="0" y="26.88" font-family="'MyriadPro-Regular'" font-size="11.2">element (RBP binding </tspan><tspan x="0" y="40.32" font-family="'MyriadPro-Regular'" font-size="11.2">site)</tspan></text>
<text transform="matrix(1 0 0 1 1.333 310.0806)"><tspan x="0" y="0" font-family="'MyriadPro-Regular'" font-size="11.2">Aberrant RNA binding</tspan><tspan x="0" y="13.44" font-family="'MyriadPro-Regular'" font-size="11.2">protein function</tspan></text>
</svg>
